<svg xmlns="http://www.w3.org/2000/svg" width="1125" viewBox="0 0 1125 1125" height="1125" version="1.0"><defs><clipPath id="a"><path d="M 32 28.5 L 1093 28.5 L 1093 1012.5 L 32 1012.5 Z M 32 28.5"/></clipPath></defs><g clip-path="url(#a)"><path fill="#F5F8FA" d="M 1092.789062 599.265625 L 1092.789062 794.5625 C 1092.789062 797.042969 1092.738281 799.519531 1092.632812 801.996094 C 1092.527344 804.472656 1092.371094 806.945312 1092.160156 809.414062 C 1091.953125 811.886719 1091.691406 814.347656 1091.382812 816.808594 C 1091.070312 819.265625 1090.707031 821.71875 1090.289062 824.164062 C 1089.875 826.605469 1089.410156 829.039062 1088.894531 831.464844 C 1088.375 833.890625 1087.808594 836.300781 1087.191406 838.703125 C 1086.574219 841.101562 1085.90625 843.488281 1085.1875 845.859375 C 1084.46875 848.234375 1083.703125 850.589844 1082.882812 852.929688 C 1082.066406 855.269531 1081.203125 857.59375 1080.289062 859.894531 C 1079.375 862.199219 1078.410156 864.484375 1077.402344 866.746094 C 1076.390625 869.011719 1075.332031 871.253906 1074.230469 873.472656 C 1073.125 875.691406 1071.976562 877.886719 1070.78125 880.058594 C 1069.582031 882.226562 1068.34375 884.375 1067.054688 886.492188 C 1065.769531 888.609375 1064.441406 890.703125 1063.066406 892.765625 C 1061.691406 894.828125 1060.277344 896.863281 1058.816406 898.867188 C 1057.359375 900.871094 1055.855469 902.84375 1054.316406 904.78125 C 1052.773438 906.722656 1051.191406 908.632812 1049.570312 910.507812 C 1047.949219 912.382812 1046.289062 914.21875 1044.589844 916.027344 C 1042.890625 917.832031 1041.152344 919.597656 1039.378906 921.332031 C 1037.605469 923.0625 1035.796875 924.757812 1033.953125 926.414062 C 1032.109375 928.070312 1030.230469 929.6875 1028.320312 931.265625 C 1026.40625 932.84375 1024.464844 934.378906 1022.488281 935.875 C 1020.511719 937.371094 1018.503906 938.824219 1016.464844 940.238281 C 1014.429688 941.648438 1012.363281 943.015625 1010.265625 944.34375 C 1008.171875 945.667969 1006.050781 946.949219 1003.902344 948.183594 C 1001.753906 949.421875 999.578125 950.609375 997.382812 951.757812 C 995.183594 952.902344 992.960938 954 990.714844 955.050781 C 988.472656 956.105469 986.207031 957.109375 983.917969 958.066406 C 981.632812 959.023438 979.328125 959.929688 977.003906 960.789062 C 974.675781 961.652344 972.335938 962.460938 969.976562 963.222656 C 967.617188 963.984375 965.242188 964.699219 962.855469 965.359375 C 960.464844 966.023438 958.066406 966.636719 955.648438 967.195312 C 955.582031 968.726562 955.441406 970.253906 955.226562 971.769531 C 955.011719 973.289062 954.722656 974.792969 954.359375 976.28125 C 954 977.769531 953.566406 979.238281 953.066406 980.6875 C 952.5625 982.136719 951.988281 983.554688 951.347656 984.949219 C 950.707031 986.339844 950 987.699219 949.226562 989.023438 C 948.453125 990.347656 947.617188 991.628906 946.722656 992.871094 C 945.824219 994.117188 944.871094 995.3125 943.855469 996.464844 C 942.84375 997.613281 941.777344 998.710938 940.65625 999.757812 C 939.539062 1000.804688 938.371094 1001.796875 937.152344 1002.730469 C 935.9375 1003.664062 934.679688 1004.539062 933.378906 1005.347656 C 932.078125 1006.160156 930.742188 1006.910156 929.371094 1007.589844 C 927.996094 1008.273438 926.59375 1008.886719 925.164062 1009.433594 C 923.730469 1009.980469 922.277344 1010.457031 920.796875 1010.863281 C 919.320312 1011.269531 917.824219 1011.601562 916.3125 1011.863281 C 914.804688 1012.121094 913.28125 1012.308594 911.753906 1012.421875 C 910.226562 1012.535156 908.695312 1012.574219 907.160156 1012.539062 C 905.628906 1012.503906 904.101562 1012.394531 902.578125 1012.210938 C 901.058594 1012.03125 899.546875 1011.773438 898.050781 1011.445312 C 896.554688 1011.113281 895.078125 1010.714844 893.617188 1010.242188 C 892.160156 1009.769531 890.726562 1009.226562 889.320312 1008.617188 C 887.914062 1008.003906 886.542969 1007.328125 885.203125 1006.582031 C 883.863281 1005.835938 882.5625 1005.03125 881.300781 1004.160156 C 880.039062 1003.289062 878.820312 1002.359375 877.648438 1001.371094 C 876.476562 1000.382812 875.355469 999.339844 874.285156 998.242188 C 873.214844 997.144531 872.199219 996 871.242188 994.804688 C 870.28125 993.609375 869.382812 992.371094 868.542969 991.085938 C 867.703125 989.804688 866.925781 988.484375 866.214844 987.125 C 865.503906 985.769531 864.859375 984.378906 864.28125 982.960938 C 863.707031 981.539062 863.199219 980.09375 862.761719 978.625 C 862.324219 977.15625 861.960938 975.667969 861.667969 974.164062 C 861.375 972.660156 861.15625 971.144531 861.011719 969.617188 C 860.863281 968.09375 860.792969 966.5625 860.796875 965.03125 L 860.796875 623.011719 C 860.808594 621.460938 860.898438 619.910156 861.0625 618.367188 C 861.226562 616.824219 861.464844 615.289062 861.777344 613.769531 C 862.089844 612.25 862.476562 610.746094 862.933594 609.261719 C 863.394531 607.78125 863.925781 606.324219 864.523438 604.890625 C 865.125 603.457031 865.792969 602.058594 866.53125 600.691406 C 867.269531 599.324219 868.070312 598 868.9375 596.710938 C 869.800781 595.421875 870.726562 594.175781 871.714844 592.976562 C 872.703125 591.777344 873.746094 590.628906 874.84375 589.535156 C 875.941406 588.4375 877.089844 587.394531 878.289062 586.410156 C 879.492188 585.421875 880.734375 584.496094 882.023438 583.632812 C 883.316406 582.769531 884.644531 581.96875 886.011719 581.234375 C 887.378906 580.496094 888.777344 579.832031 890.210938 579.230469 C 891.644531 578.632812 893.101562 578.101562 894.585938 577.644531 C 896.070312 577.1875 897.574219 576.804688 899.09375 576.492188 C 900.617188 576.179688 902.148438 575.941406 903.691406 575.78125 C 905.238281 575.617188 906.785156 575.53125 908.339844 575.519531 C 909.902344 575.496094 911.464844 575.550781 913.019531 575.6875 C 914.578125 575.820312 916.128906 576.03125 917.664062 576.320312 C 919.203125 576.609375 920.71875 576.976562 922.21875 577.417969 C 923.722656 577.859375 925.195312 578.371094 926.644531 578.960938 C 928.09375 579.550781 929.507812 580.210938 930.890625 580.941406 C 932.273438 581.671875 933.617188 582.472656 934.917969 583.335938 C 936.222656 584.203125 937.476562 585.128906 938.6875 586.121094 C 939.898438 587.113281 941.054688 588.164062 942.15625 589.269531 C 943.261719 590.378906 944.308594 591.539062 945.296875 592.75 C 946.285156 593.960938 947.210938 595.222656 948.070312 596.527344 C 948.933594 597.832031 949.726562 599.175781 950.453125 600.558594 C 951.179688 601.945312 951.835938 603.363281 952.421875 604.8125 C 953.007812 606.261719 953.519531 607.738281 953.957031 609.242188 C 954.390625 610.742188 954.753906 612.261719 955.039062 613.800781 C 955.320312 615.335938 955.527344 616.886719 955.660156 618.445312 C 955.789062 620.003906 955.839844 621.5625 955.8125 623.128906 C 963.453125 624.964844 970.941406 627.285156 978.28125 630.085938 C 985.621094 632.886719 992.753906 636.148438 999.671875 639.871094 C 1006.59375 643.59375 1013.246094 647.742188 1019.628906 652.320312 C 1026.015625 656.902344 1032.078125 661.871094 1037.824219 667.230469 L 1037.824219 599.265625 C 1037.632812 571.480469 1035.09375 543.914062 1030.203125 516.5625 C 1025.316406 489.210938 1018.148438 462.46875 1008.703125 436.335938 C 991.433594 392.117188 968.769531 348.960938 939.535156 311.195312 C 932.128906 313.328125 924.574219 314.402344 916.871094 314.425781 C 898.425781 314.425781 881.246094 306.863281 867.226562 293.929688 L 866.144531 292.84375 C 856.328125 282.71875 846.011719 273.125 835.199219 264.070312 C 824.386719 255.015625 813.132812 246.542969 801.4375 238.65625 C 789.746094 230.769531 777.675781 223.507812 765.226562 216.875 C 752.777344 210.242188 740.019531 204.273438 726.953125 198.964844 C 720.417969 196.300781 713.824219 193.796875 707.171875 191.453125 C 700.515625 189.109375 693.808594 186.925781 687.050781 184.90625 C 680.289062 182.886719 673.484375 181.03125 666.636719 179.339844 C 659.785156 177.648438 652.898438 176.125 645.976562 174.765625 C 639.050781 173.410156 632.101562 172.21875 625.121094 171.199219 C 618.136719 170.179688 611.136719 169.328125 604.113281 168.644531 C 597.089844 167.964844 590.058594 167.453125 583.011719 167.109375 C 575.960938 166.769531 568.910156 166.597656 561.855469 166.597656 C 554.800781 166.597656 547.75 166.769531 540.703125 167.109375 C 533.65625 167.453125 526.621094 167.964844 519.597656 168.644531 C 512.574219 169.328125 505.574219 170.179688 498.59375 171.199219 C 491.613281 172.21875 484.660156 173.410156 477.734375 174.765625 C 470.8125 176.125 463.925781 177.648438 457.078125 179.339844 C 450.226562 181.03125 443.421875 182.886719 436.660156 184.90625 C 429.902344 186.925781 423.195312 189.109375 416.539062 191.453125 C 409.886719 193.796875 403.292969 196.300781 396.761719 198.964844 C 383.792969 204.476562 371.121094 210.59375 358.742188 217.316406 C 346.363281 224.039062 334.332031 231.339844 322.652344 239.21875 C 310.972656 247.09375 299.695312 255.511719 288.824219 264.472656 C 277.953125 273.429688 267.53125 282.886719 257.566406 292.84375 L 255.421875 295.011719 C 252.203125 297.941406 248.738281 300.554688 245.035156 302.847656 C 241.332031 305.136719 237.449219 307.074219 233.390625 308.648438 C 229.328125 310.226562 225.160156 311.417969 220.878906 312.226562 C 216.601562 313.035156 212.28125 313.445312 207.925781 313.457031 C 200.230469 313.4375 192.683594 312.359375 185.285156 310.226562 C 170.542969 329.144531 157.375 349.097656 145.773438 370.089844 C 134.175781 391.078125 124.289062 412.847656 116.117188 435.394531 C 111.296875 448.390625 107.070312 461.574219 103.433594 474.953125 C 99.800781 488.328125 96.769531 501.839844 94.347656 515.488281 C 91.925781 529.136719 90.121094 542.863281 88.929688 556.675781 C 87.742188 570.484375 87.171875 584.320312 87.226562 598.183594 L 87.226562 666.171875 C 93.199219 660.417969 99.554688 655.121094 106.292969 650.285156 C 113.03125 645.445312 120.078125 641.117188 127.441406 637.292969 C 134.800781 633.46875 142.398438 630.195312 150.230469 627.464844 C 158.0625 624.738281 166.050781 622.585938 174.195312 621.007812 C 174.246094 619.453125 174.375 617.90625 174.578125 616.367188 C 174.78125 614.824219 175.058594 613.296875 175.414062 611.785156 C 175.765625 610.269531 176.191406 608.777344 176.691406 607.308594 C 177.191406 605.835938 177.761719 604.394531 178.40625 602.976562 C 179.046875 601.5625 179.757812 600.183594 180.535156 598.835938 C 181.3125 597.492188 182.152344 596.1875 183.058594 594.921875 C 183.964844 593.660156 184.929688 592.445312 185.957031 591.277344 C 186.980469 590.109375 188.058594 588.992188 189.195312 587.933594 C 190.328125 586.871094 191.511719 585.867188 192.746094 584.921875 C 193.980469 583.976562 195.257812 583.09375 196.578125 582.273438 C 197.898438 581.453125 199.253906 580.699219 200.648438 580.011719 C 202.042969 579.324219 203.464844 578.707031 204.921875 578.160156 C 206.375 577.613281 207.855469 577.140625 209.355469 576.738281 C 210.855469 576.335938 212.375 576.007812 213.90625 575.753906 C 215.441406 575.503906 216.984375 575.328125 218.535156 575.226562 C 220.085938 575.125 221.636719 575.097656 223.191406 575.152344 C 224.742188 575.203125 226.289062 575.328125 227.832031 575.53125 C 229.371094 575.734375 230.898438 576.015625 232.414062 576.367188 C 233.925781 576.722656 235.417969 577.148438 236.890625 577.648438 C 238.363281 578.148438 239.804688 578.71875 241.21875 579.359375 C 242.636719 580.003906 244.015625 580.710938 245.363281 581.488281 C 246.707031 582.265625 248.011719 583.109375 249.273438 584.015625 C 250.539062 584.917969 251.753906 585.882812 252.921875 586.910156 C 254.089844 587.933594 255.207031 589.015625 256.265625 590.148438 C 257.328125 591.285156 258.332031 592.46875 259.277344 593.699219 C 260.222656 594.933594 261.109375 596.210938 261.929688 597.53125 C 262.746094 598.851562 263.5 600.207031 264.1875 601.601562 C 264.875 602.996094 265.492188 604.417969 266.039062 605.875 C 266.585938 607.328125 267.0625 608.808594 267.460938 610.308594 C 267.863281 611.808594 268.191406 613.328125 268.445312 614.859375 C 268.695312 616.394531 268.875 617.933594 268.976562 619.484375 C 269.074219 621.035156 269.101562 622.589844 269.050781 624.140625 L 269.050781 965.03125 C 269.050781 966.554688 268.980469 968.074219 268.835938 969.589844 C 268.691406 971.105469 268.476562 972.613281 268.183594 974.109375 C 267.894531 975.605469 267.535156 977.085938 267.101562 978.546875 C 266.671875 980.007812 266.167969 981.445312 265.597656 982.855469 C 265.027344 984.269531 264.390625 985.652344 263.6875 987.003906 C 262.984375 988.355469 262.21875 989.667969 261.386719 990.945312 C 260.554688 992.222656 259.667969 993.460938 258.71875 994.652344 C 257.769531 995.84375 256.761719 996.988281 255.703125 998.082031 C 254.644531 999.175781 253.535156 1000.21875 252.375 1001.207031 C 251.214844 1002.195312 250.011719 1003.125 248.761719 1003.996094 C 247.511719 1004.871094 246.222656 1005.679688 244.894531 1006.429688 C 243.566406 1007.175781 242.207031 1007.859375 240.8125 1008.476562 C 239.421875 1009.09375 238 1009.640625 236.554688 1010.121094 C 235.109375 1010.601562 233.644531 1011.011719 232.15625 1011.351562 C 230.671875 1011.691406 229.171875 1011.957031 227.660156 1012.152344 C 226.152344 1012.347656 224.632812 1012.46875 223.109375 1012.515625 C 221.585938 1012.566406 220.066406 1012.539062 218.542969 1012.441406 C 217.023438 1012.34375 215.511719 1012.171875 214.007812 1011.929688 C 212.503906 1011.683594 211.015625 1011.371094 209.539062 1010.980469 C 208.066406 1010.59375 206.613281 1010.136719 205.183594 1009.609375 C 203.753906 1009.082031 202.355469 1008.488281 200.980469 1007.828125 C 199.609375 1007.164062 198.273438 1006.4375 196.96875 1005.648438 C 195.667969 1004.855469 194.40625 1004.003906 193.183594 1003.09375 C 191.964844 1002.179688 190.789062 1001.210938 189.664062 1000.1875 C 188.535156 999.160156 187.460938 998.082031 186.4375 996.953125 C 185.414062 995.824219 184.449219 994.648438 183.539062 993.425781 C 182.628906 992.203125 181.78125 990.941406 180.992188 989.636719 C 180.203125 988.332031 179.480469 986.996094 178.820312 985.621094 C 178.160156 984.246094 177.570312 982.84375 177.042969 981.414062 C 176.519531 979.984375 176.066406 978.53125 175.683594 977.054688 C 175.296875 975.582031 174.984375 974.09375 174.746094 972.585938 C 174.503906 971.082031 174.335938 969.570312 174.242188 968.050781 C 165.742188 966.316406 157.414062 963.976562 149.257812 961.027344 C 141.101562 958.078125 133.203125 954.554688 125.558594 950.457031 C 117.917969 946.355469 110.613281 941.726562 103.644531 936.5625 C 96.675781 931.398438 90.121094 925.753906 83.976562 919.632812 C 79.871094 915.542969 75.980469 911.261719 72.300781 906.785156 C 68.617188 902.3125 65.167969 897.667969 61.945312 892.851562 C 58.722656 888.035156 55.746094 883.074219 53.011719 877.964844 C 50.28125 872.855469 47.804688 867.625 45.589844 862.269531 C 43.371094 856.917969 41.425781 851.46875 39.746094 845.921875 C 38.066406 840.378906 36.664062 834.761719 35.539062 829.078125 C 34.414062 823.394531 33.574219 817.671875 33.011719 811.902344 C 32.453125 806.136719 32.179688 800.355469 32.191406 794.5625 L 32.191406 599.265625 C 32.335938 568.375 35.121094 537.722656 40.539062 507.308594 C 45.960938 476.894531 53.9375 447.167969 64.46875 418.125 C 73.835938 392.46875 85.132812 367.6875 98.355469 343.785156 C 111.578125 319.882812 126.566406 297.148438 143.324219 275.578125 C 140.753906 270.964844 138.832031 266.097656 137.550781 260.976562 C 136.273438 255.851562 135.683594 250.652344 135.78125 245.375 C 135.730469 240.761719 136.140625 236.1875 137.015625 231.660156 C 137.886719 227.128906 139.203125 222.730469 140.964844 218.464844 C 142.726562 214.199219 144.898438 210.15625 147.476562 206.328125 C 150.054688 202.503906 152.988281 198.972656 156.28125 195.738281 C 161.257812 190.785156 166.320312 185.929688 171.476562 181.164062 C 176.632812 176.398438 181.871094 171.726562 187.199219 167.152344 C 192.523438 162.578125 197.929688 158.105469 203.421875 153.730469 C 208.910156 149.355469 214.480469 145.082031 220.125 140.910156 C 225.773438 136.738281 231.492188 132.671875 237.289062 128.710938 C 243.085938 124.75 248.949219 120.894531 254.886719 117.148438 C 260.824219 113.402344 266.828125 109.765625 272.898438 106.238281 C 278.96875 102.710938 285.101562 99.296875 291.296875 95.996094 C 297.492188 92.695312 303.746094 89.507812 310.058594 86.4375 C 316.371094 83.363281 322.738281 80.40625 329.15625 77.570312 C 335.578125 74.730469 342.050781 72.007812 348.570312 69.40625 C 355.089844 66.804688 361.65625 64.324219 368.265625 61.964844 C 374.878906 59.601562 381.53125 57.363281 388.222656 55.246094 C 394.917969 53.128906 401.648438 51.136719 408.414062 49.265625 C 415.179688 47.394531 421.980469 45.648438 428.808594 44.027344 C 435.640625 42.40625 442.5 40.910156 449.382812 39.539062 C 456.269531 38.171875 463.179688 36.925781 470.109375 35.8125 C 477.039062 34.695312 483.988281 33.703125 490.957031 32.84375 C 497.921875 31.980469 504.90625 31.246094 511.898438 30.640625 C 518.894531 30.035156 525.894531 29.558594 532.90625 29.207031 C 539.917969 28.859375 546.933594 28.640625 553.953125 28.546875 C 560.972656 28.453125 567.992188 28.492188 575.011719 28.65625 C 582.03125 28.820312 589.042969 29.117188 596.050781 29.539062 C 603.058594 29.960938 610.054688 30.511719 617.042969 31.191406 C 624.03125 31.867188 631.003906 32.675781 637.960938 33.609375 C 644.917969 34.542969 651.859375 35.605469 658.777344 36.792969 C 665.695312 37.984375 672.589844 39.300781 679.460938 40.742188 C 686.332031 42.183594 693.175781 43.75 699.988281 45.441406 C 706.800781 47.132812 713.582031 48.949219 720.328125 50.890625 C 727.074219 52.832031 733.785156 54.894531 740.453125 57.082031 C 747.125 59.269531 753.753906 61.578125 760.339844 64.007812 C 766.925781 66.4375 773.464844 68.988281 779.960938 71.65625 C 797.289062 78.796875 814.222656 86.78125 830.761719 95.601562 C 847.296875 104.425781 863.355469 114.042969 878.9375 124.460938 C 894.519531 134.878906 909.546875 146.039062 924.019531 157.949219 C 938.496094 169.859375 952.34375 182.453125 965.566406 195.738281 C 968.855469 198.972656 971.792969 202.503906 974.371094 206.328125 C 976.949219 210.15625 979.117188 214.199219 980.878906 218.464844 C 982.640625 222.730469 983.957031 227.128906 984.828125 231.660156 C 985.703125 236.1875 986.113281 240.761719 986.0625 245.375 C 985.835938 250.613281 985.085938 255.773438 983.8125 260.859375 C 982.539062 265.945312 980.765625 270.851562 978.5 275.578125 C 995.246094 297.148438 1010.226562 319.882812 1023.4375 343.785156 C 1036.648438 367.6875 1047.929688 392.46875 1057.285156 418.125 C 1062.671875 432.589844 1067.398438 447.269531 1071.460938 462.160156 C 1075.523438 477.050781 1078.910156 492.097656 1081.617188 507.292969 C 1084.320312 522.492188 1086.339844 537.777344 1087.664062 553.160156 C 1088.992188 568.539062 1089.625 583.945312 1089.5625 599.382812 Z M 1092.789062 599.265625"/></g><path fill="#F5F8FA" d="M 362.058594 765.765625 L 397.589844 765.765625 L 397.589844 950.964844 L 362.058594 950.964844 Z M 362.058594 765.765625"/><path fill="#F5F8FA" d="M 435.148438 648.140625 L 470.679688 648.140625 L 470.679688 950.941406 L 435.148438 950.941406 Z M 435.148438 648.140625"/><path fill="#F5F8FA" d="M 508.238281 693.191406 L 543.769531 693.191406 L 543.769531 950.964844 L 508.238281 950.964844 Z M 508.238281 693.191406"/><path fill="#F5F8FA" d="M 581.304688 578.078125 L 616.835938 578.078125 L 616.835938 950.964844 L 581.304688 950.964844 Z M 581.304688 578.078125"/><path fill="#F5F8FA" d="M 654.394531 648.140625 L 689.921875 648.140625 L 689.921875 950.941406 L 654.394531 950.941406 Z M 654.394531 648.140625"/><path fill="#F5F8FA" d="M 727.460938 723.230469 L 762.988281 723.230469 L 762.988281 950.964844 L 727.460938 950.964844 Z M 727.460938 723.230469"/><g fill="#D5FCFF"><g><g><path d="M 118.628906 0 L 101.382812 -88.84375 L 78.128906 -88.84375 L 59.707031 -26.523438 L 41.15625 -88.84375 L 17.898438 -88.84375 L 0.652344 0 L 22.210938 0 L 32.664062 -61.273438 L 50.039062 0 L 69.246094 0 L 86.621094 -61.273438 L 97.074219 0 Z M 118.628906 0" transform="translate(274.563 366.429)"/></g></g></g><g fill="#D5FCFF"><g><g><path d="M 59.707031 -88.84375 L 59.707031 -37.496094 C 59.707031 -25.214844 56.050781 -18.289062 42.59375 -18.289062 C 29.265625 -18.289062 25.476562 -25.214844 25.476562 -37.496094 L 25.476562 -88.84375 L 5.878906 -88.84375 L 5.878906 -34.621094 C 5.878906 -10.972656 19.46875 1.304688 42.59375 1.304688 C 65.71875 1.304688 79.304688 -10.972656 79.304688 -34.621094 L 79.304688 -88.84375 Z M 59.707031 -88.84375" transform="translate(433.033 366.429)"/></g></g></g><g fill="#D5FCFF"><g><g><path d="M 42.332031 -13.847656 C 32.664062 -13.847656 24.300781 -18.683594 23.777344 -29.265625 L 3.917969 -29.265625 C 4.050781 -7.578125 21.949219 2.089844 41.546875 2.089844 C 59.707031 2.089844 78.390625 -5.617188 78.390625 -26.523438 C 78.390625 -60.359375 27.042969 -48.992188 27.042969 -64.800781 C 27.042969 -71.464844 34.753906 -74.078125 40.238281 -74.078125 C 50.039062 -74.078125 55.394531 -71.074219 56.441406 -61.796875 L 75.386719 -61.796875 C 74.730469 -82.046875 58.269531 -90.148438 39.980469 -90.148438 C 23.777344 -90.148438 6.792969 -81.527344 6.792969 -63.234375 C 6.792969 -30.441406 58.140625 -41.546875 58.140625 -24.300781 C 58.140625 -16.332031 48.472656 -13.847656 42.332031 -13.847656 Z M 42.332031 -13.847656" transform="translate(557.407 366.429)"/></g></g></g><g fill="#D5FCFF"><g><g><path d="M 27.4375 0 L 27.4375 -88.84375 L 7.839844 -88.84375 L 7.839844 0 Z M 27.4375 0" transform="translate(678.906 366.429)"/></g></g></g><g fill="#D5FCFF"><g><g><path d="M 71.988281 -30.179688 C 68.328125 -22.339844 59.445312 -16.984375 50.300781 -16.984375 C 35.929688 -16.984375 24.429688 -29.265625 24.429688 -44.421875 C 24.429688 -59.445312 35.929688 -71.859375 50.300781 -71.859375 C 59.316406 -71.859375 68.199219 -66.894531 71.859375 -58.921875 L 93.675781 -58.921875 C 87.667969 -77.082031 70.550781 -90.148438 50.300781 -90.148438 C 25.085938 -90.148438 4.574219 -69.636719 4.574219 -44.421875 C 4.574219 -19.207031 25.085938 1.304688 50.300781 1.304688 C 70.550781 1.304688 87.796875 -11.890625 93.808594 -30.179688 Z M 71.988281 -30.179688" transform="translate(753.374 366.429)"/></g></g></g><g fill="#D5FCFF"><g><g><path d="M 27.4375 -31.746094 L 27.566406 -31.746094 L 48.734375 0 L 73.554688 0 L 48.078125 -32.664062 C 59.316406 -35.40625 68.328125 -45.335938 68.328125 -60.359375 C 68.328125 -77.214844 55.527344 -88.84375 41.15625 -88.84375 L 7.839844 -88.84375 L 7.839844 0 L 27.4375 0 Z M 37.886719 -73.425781 C 43.636719 -73.425781 49.648438 -68.460938 49.648438 -60.359375 C 49.648438 -51.867188 43.636719 -47.164062 37.886719 -47.164062 L 27.4375 -47.164062 L 27.4375 -73.425781 Z M 37.886719 -73.425781" transform="translate(285.203 548.678)"/></g></g></g><g fill="#D5FCFF"><g><g><path d="M 59.316406 -17.769531 L 27.4375 -17.769531 L 27.4375 -35.667969 L 58.007812 -35.667969 L 58.007812 -53.4375 L 27.4375 -53.4375 L 27.4375 -71.074219 L 59.316406 -71.074219 L 59.316406 -88.84375 L 7.839844 -88.84375 L 7.839844 0 L 59.316406 0 Z M 59.316406 -17.769531" transform="translate(396.382 548.678)"/></g></g></g><g fill="#D5FCFF"><g><g><path d="M 56.179688 -33.96875 L 33.707031 -33.96875 L 44.945312 -65.585938 Z M 89.363281 0 L 53.304688 -88.84375 L 36.710938 -88.84375 L 0.652344 0 L 21.6875 0 L 28.089844 -17.898438 L 61.929688 -17.898438 L 68.328125 0 Z M 89.363281 0" transform="translate(502.727 548.678)"/></g></g></g><g fill="#D5FCFF"><g><g><path d="M 71.988281 -30.179688 C 68.328125 -22.339844 59.445312 -16.984375 50.300781 -16.984375 C 35.929688 -16.984375 24.429688 -29.265625 24.429688 -44.421875 C 24.429688 -59.445312 35.929688 -71.859375 50.300781 -71.859375 C 59.316406 -71.859375 68.199219 -66.894531 71.859375 -58.921875 L 93.675781 -58.921875 C 87.667969 -77.082031 70.550781 -90.148438 50.300781 -90.148438 C 25.085938 -90.148438 4.574219 -69.636719 4.574219 -44.421875 C 4.574219 -19.207031 25.085938 1.304688 50.300781 1.304688 C 70.550781 1.304688 87.796875 -11.890625 93.808594 -30.179688 Z M 71.988281 -30.179688" transform="translate(631.933 548.678)"/></g></g></g><g fill="#D5FCFF"><g><g><path d="M 45.597656 -71.074219 L 70.941406 -71.074219 L 70.941406 -88.84375 L 0.652344 -88.84375 L 0.652344 -71.074219 L 26 -71.074219 L 26 0 L 45.597656 0 Z M 45.597656 -71.074219" transform="translate(768.195 548.678)"/></g></g></g></svg>