<svg xmlns="http://www.w3.org/2000/svg" width="1125" viewBox="0 0 1125 1125" height="1125" version="1.0"><defs><clipPath id="a"><path d="M 0 15.507812 L 1125 15.507812 L 1125 1058.757812 L 0 1058.757812 Z M 0 15.507812"/></clipPath></defs><g clip-path="url(#a)"><path fill="#F5F8FA" d="M 1124.601562 620.640625 L 1124.601562 827.695312 C 1124.601562 830.324219 1124.542969 832.953125 1124.433594 835.578125 C 1124.320312 838.203125 1124.15625 840.824219 1123.933594 843.445312 C 1123.714844 846.0625 1123.4375 848.675781 1123.105469 851.28125 C 1122.777344 853.890625 1122.390625 856.488281 1121.953125 859.078125 C 1121.511719 861.671875 1121.019531 864.25 1120.46875 866.820312 C 1119.921875 869.390625 1119.320312 871.949219 1118.664062 874.492188 C 1118.011719 877.039062 1117.300781 879.570312 1116.542969 882.085938 C 1115.78125 884.597656 1114.964844 887.097656 1114.101562 889.578125 C 1113.234375 892.058594 1112.316406 894.523438 1111.347656 896.964844 C 1110.378906 899.40625 1109.359375 901.828125 1108.289062 904.226562 C 1107.21875 906.628906 1106.097656 909.003906 1104.925781 911.359375 C 1103.753906 913.710938 1102.535156 916.039062 1101.269531 918.339844 C 1100 920.640625 1098.683594 922.914062 1097.320312 925.160156 C 1095.957031 927.410156 1094.546875 929.625 1093.089844 931.8125 C 1091.636719 934 1090.132812 936.15625 1088.585938 938.28125 C 1087.039062 940.40625 1085.449219 942.496094 1083.816406 944.554688 C 1082.179688 946.613281 1080.503906 948.632812 1078.785156 950.621094 C 1077.066406 952.609375 1075.304688 954.558594 1073.503906 956.472656 C 1071.703125 958.386719 1069.863281 960.261719 1067.984375 962.097656 C 1066.101562 963.933594 1064.1875 965.730469 1062.230469 967.488281 C 1060.277344 969.242188 1058.285156 970.957031 1056.257812 972.628906 C 1054.230469 974.300781 1052.171875 975.933594 1050.074219 977.519531 C 1047.980469 979.105469 1045.851562 980.644531 1043.691406 982.140625 C 1041.53125 983.640625 1039.34375 985.089844 1037.121094 986.496094 C 1034.902344 987.898438 1032.652344 989.257812 1030.375 990.570312 C 1028.097656 991.878906 1025.792969 993.140625 1023.460938 994.355469 C 1021.128906 995.570312 1018.777344 996.734375 1016.394531 997.847656 C 1014.015625 998.964844 1011.617188 1000.03125 1009.191406 1001.042969 C 1006.765625 1002.058594 1004.324219 1003.023438 1001.859375 1003.933594 C 999.394531 1004.847656 996.910156 1005.707031 994.410156 1006.511719 C 991.910156 1007.320312 989.394531 1008.078125 986.863281 1008.777344 C 984.328125 1009.480469 981.785156 1010.128906 979.222656 1010.726562 C 979.152344 1012.347656 979.003906 1013.964844 978.773438 1015.574219 C 978.546875 1017.183594 978.242188 1018.777344 977.859375 1020.359375 C 977.476562 1021.9375 977.015625 1023.496094 976.484375 1025.03125 C 975.949219 1026.5625 975.34375 1028.070312 974.664062 1029.546875 C 973.984375 1031.023438 973.234375 1032.460938 972.414062 1033.867188 C 971.597656 1035.269531 970.710938 1036.628906 969.757812 1037.949219 C 968.808594 1039.265625 967.796875 1040.535156 966.722656 1041.753906 C 965.648438 1042.972656 964.519531 1044.140625 963.332031 1045.25 C 962.144531 1046.359375 960.90625 1047.410156 959.617188 1048.398438 C 958.328125 1049.390625 956.996094 1050.316406 955.617188 1051.175781 C 954.238281 1052.035156 952.820312 1052.828125 951.367188 1053.550781 C 949.910156 1054.277344 948.425781 1054.925781 946.90625 1055.507812 C 945.386719 1056.085938 943.84375 1056.589844 942.277344 1057.019531 C 940.710938 1057.449219 939.125 1057.804688 937.523438 1058.078125 C 935.921875 1058.355469 934.3125 1058.554688 932.691406 1058.675781 C 931.070312 1058.796875 929.449219 1058.835938 927.824219 1058.800781 C 926.199219 1058.761719 924.582031 1058.648438 922.964844 1058.453125 C 921.351562 1058.257812 919.753906 1057.988281 918.164062 1057.636719 C 916.578125 1057.289062 915.011719 1056.863281 913.464844 1056.363281 C 911.921875 1055.863281 910.402344 1055.285156 908.910156 1054.636719 C 907.421875 1053.992188 905.964844 1053.273438 904.546875 1052.484375 C 903.125 1051.691406 901.746094 1050.835938 900.410156 1049.914062 C 899.070312 1048.992188 897.78125 1048.007812 896.539062 1046.957031 C 895.296875 1045.910156 894.109375 1044.804688 892.972656 1043.640625 C 891.839844 1042.476562 890.761719 1041.261719 889.746094 1039.996094 C 888.726562 1038.726562 887.773438 1037.414062 886.882812 1036.054688 C 885.996094 1034.695312 885.171875 1033.292969 884.417969 1031.855469 C 883.664062 1030.414062 882.980469 1028.941406 882.371094 1027.4375 C 881.757812 1025.929688 881.222656 1024.398438 880.757812 1022.84375 C 880.292969 1021.285156 879.90625 1019.707031 879.597656 1018.113281 C 879.289062 1016.515625 879.054688 1014.910156 878.902344 1013.292969 C 878.746094 1011.675781 878.671875 1010.054688 878.671875 1008.429688 L 878.671875 645.816406 C 878.6875 644.171875 878.78125 642.527344 878.953125 640.890625 C 879.128906 639.253906 879.382812 637.628906 879.714844 636.019531 C 880.046875 634.40625 880.453125 632.8125 880.941406 631.238281 C 881.425781 629.667969 881.988281 628.121094 882.625 626.605469 C 883.261719 625.085938 883.972656 623.601562 884.753906 622.152344 C 885.535156 620.703125 886.382812 619.296875 887.300781 617.929688 C 888.21875 616.5625 889.203125 615.246094 890.246094 613.972656 C 891.292969 612.703125 892.398438 611.484375 893.5625 610.320312 C 894.730469 609.160156 895.945312 608.054688 897.21875 607.007812 C 898.492188 605.964844 899.808594 604.984375 901.175781 604.066406 C 902.542969 603.148438 903.953125 602.300781 905.402344 601.523438 C 906.851562 600.742188 908.335938 600.035156 909.855469 599.398438 C 911.375 598.765625 912.921875 598.203125 914.492188 597.71875 C 916.066406 597.234375 917.660156 596.824219 919.273438 596.496094 C 920.882812 596.164062 922.507812 595.914062 924.144531 595.742188 C 925.78125 595.570312 927.425781 595.476562 929.070312 595.464844 C 930.726562 595.441406 932.382812 595.5 934.035156 595.640625 C 935.6875 595.785156 937.328125 596.007812 938.957031 596.3125 C 940.585938 596.621094 942.195312 597.007812 943.785156 597.476562 C 945.378906 597.941406 946.941406 598.488281 948.476562 599.113281 C 950.011719 599.738281 951.511719 600.4375 952.980469 601.214844 C 954.445312 601.988281 955.867188 602.835938 957.25 603.753906 C 958.628906 604.671875 959.960938 605.65625 961.242188 606.707031 C 962.523438 607.757812 963.75 608.871094 964.921875 610.042969 C 966.09375 611.21875 967.203125 612.445312 968.25 613.734375 C 969.296875 615.019531 970.277344 616.351562 971.191406 617.734375 C 972.105469 619.121094 972.945312 620.546875 973.714844 622.011719 C 974.488281 623.480469 975.183594 624.984375 975.800781 626.523438 C 976.421875 628.058594 976.964844 629.625 977.425781 631.214844 C 977.890625 632.808594 978.273438 634.417969 978.574219 636.050781 C 978.875 637.679688 979.097656 639.320312 979.234375 640.972656 C 979.371094 642.625 979.425781 644.28125 979.394531 645.9375 C 987.492188 647.886719 995.433594 650.34375 1003.214844 653.316406 C 1010.996094 656.289062 1018.554688 659.746094 1025.890625 663.691406 C 1033.226562 667.636719 1040.277344 672.035156 1047.046875 676.890625 C 1053.816406 681.746094 1060.242188 687.015625 1066.332031 692.699219 L 1066.332031 620.640625 C 1066.128906 591.183594 1063.4375 561.957031 1058.253906 532.957031 C 1053.074219 503.957031 1045.476562 475.605469 1035.464844 447.902344 C 1017.15625 401.019531 993.132812 355.261719 962.140625 315.226562 C 954.289062 317.484375 946.28125 318.625 938.113281 318.648438 C 918.5625 318.648438 900.351562 310.628906 885.492188 296.917969 L 884.34375 295.769531 C 873.9375 285.03125 863.003906 274.863281 851.539062 265.261719 C 840.078125 255.660156 828.148438 246.679688 815.75 238.316406 C 803.355469 229.957031 790.558594 222.257812 777.363281 215.226562 C 764.167969 208.195312 750.644531 201.863281 736.792969 196.238281 C 729.867188 193.414062 722.875 190.757812 715.820312 188.273438 C 708.769531 185.785156 701.660156 183.472656 694.492188 181.328125 C 687.328125 179.1875 680.113281 177.222656 672.851562 175.429688 C 665.589844 173.636719 658.289062 172.019531 650.953125 170.582031 C 643.613281 169.140625 636.242188 167.878906 628.839844 166.796875 C 621.441406 165.714844 614.019531 164.8125 606.574219 164.089844 C 599.128906 163.367188 591.671875 162.824219 584.203125 162.464844 C 576.734375 162.101562 569.257812 161.921875 561.777344 161.921875 C 554.300781 161.921875 546.824219 162.101562 539.355469 162.464844 C 531.882812 162.824219 524.425781 163.367188 516.984375 164.089844 C 509.539062 164.8125 502.117188 165.714844 494.714844 166.796875 C 487.316406 167.878906 479.945312 169.140625 472.605469 170.582031 C 465.265625 172.019531 457.96875 173.636719 450.707031 175.429688 C 443.445312 177.222656 436.230469 179.1875 429.066406 181.328125 C 421.898438 183.472656 414.789062 185.785156 407.734375 188.273438 C 400.683594 190.757812 393.691406 193.414062 386.765625 196.238281 C 373.023438 202.078125 359.589844 208.5625 346.464844 215.691406 C 333.34375 222.820312 320.589844 230.5625 308.207031 238.914062 C 295.828125 247.265625 283.875 256.191406 272.347656 265.6875 C 260.824219 275.183594 249.777344 285.210938 239.214844 295.769531 L 236.941406 298.066406 C 233.527344 301.175781 229.855469 303.941406 225.929688 306.371094 C 222.003906 308.804688 217.890625 310.855469 213.585938 312.523438 C 209.28125 314.195312 204.859375 315.460938 200.324219 316.316406 C 195.785156 317.175781 191.210938 317.609375 186.59375 317.621094 C 178.433594 317.601562 170.433594 316.460938 162.589844 314.199219 C 146.964844 334.253906 133.003906 355.410156 120.707031 377.664062 C 108.410156 399.917969 97.929688 422.996094 89.265625 446.898438 C 84.160156 460.679688 79.675781 474.660156 75.824219 488.839844 C 71.96875 503.023438 68.761719 517.347656 66.191406 531.820312 C 63.625 546.289062 61.710938 560.84375 60.449219 575.484375 C 59.1875 590.128906 58.585938 604.796875 58.640625 619.492188 L 58.640625 691.574219 C 64.976562 685.472656 71.714844 679.859375 78.855469 674.730469 C 85.996094 669.601562 93.46875 665.011719 101.273438 660.957031 C 109.074219 656.90625 117.128906 653.433594 125.433594 650.539062 C 133.734375 647.644531 142.203125 645.363281 150.835938 643.691406 C 150.890625 642.042969 151.023438 640.402344 151.238281 638.769531 C 151.457031 637.136719 151.75 635.519531 152.125 633.914062 C 152.5 632.308594 152.953125 630.726562 153.480469 629.167969 C 154.011719 627.605469 154.617188 626.078125 155.296875 624.574219 C 155.976562 623.074219 156.730469 621.613281 157.554688 620.183594 C 158.378906 618.757812 159.269531 617.375 160.230469 616.035156 C 161.191406 614.699219 162.214844 613.410156 163.300781 612.171875 C 164.386719 610.933594 165.53125 609.75 166.734375 608.625 C 167.9375 607.5 169.195312 606.433594 170.5 605.429688 C 171.808594 604.429688 173.160156 603.492188 174.5625 602.625 C 175.960938 601.753906 177.398438 600.953125 178.875 600.226562 C 180.355469 599.5 181.863281 598.84375 183.40625 598.265625 C 184.949219 597.683594 186.515625 597.183594 188.105469 596.753906 C 189.699219 596.328125 191.308594 595.984375 192.933594 595.714844 C 194.558594 595.445312 196.191406 595.257812 197.835938 595.152344 C 199.480469 595.046875 201.125 595.019531 202.773438 595.074219 C 204.417969 595.128906 206.058594 595.261719 207.691406 595.476562 C 209.324219 595.695312 210.945312 595.988281 212.550781 596.363281 C 214.152344 596.738281 215.734375 597.191406 217.296875 597.71875 C 218.855469 598.25 220.386719 598.855469 221.886719 599.535156 C 223.386719 600.21875 224.851562 600.96875 226.277344 601.792969 C 227.703125 602.617188 229.085938 603.511719 230.425781 604.46875 C 231.761719 605.429688 233.050781 606.453125 234.289062 607.539062 C 235.527344 608.628906 236.710938 609.773438 237.835938 610.976562 C 238.960938 612.179688 240.027344 613.433594 241.027344 614.742188 C 242.03125 616.046875 242.96875 617.402344 243.835938 618.800781 C 244.707031 620.199219 245.503906 621.640625 246.234375 623.117188 C 246.960938 624.59375 247.617188 626.105469 248.195312 627.648438 C 248.773438 629.1875 249.277344 630.757812 249.703125 632.347656 C 250.128906 633.9375 250.476562 635.546875 250.746094 637.171875 C 251.011719 638.800781 251.199219 640.433594 251.308594 642.078125 C 251.414062 643.722656 251.441406 645.367188 251.386719 647.015625 L 251.386719 1008.429688 C 251.390625 1010.042969 251.3125 1011.65625 251.160156 1013.265625 C 251.007812 1014.871094 250.777344 1016.46875 250.46875 1018.054688 C 250.164062 1019.640625 249.78125 1021.207031 249.324219 1022.757812 C 248.863281 1024.308594 248.332031 1025.832031 247.730469 1027.328125 C 247.125 1028.828125 246.449219 1030.292969 245.703125 1031.726562 C 244.957031 1033.15625 244.144531 1034.550781 243.261719 1035.90625 C 242.382812 1037.261719 241.441406 1038.570312 240.433594 1039.832031 C 239.425781 1041.097656 238.363281 1042.308594 237.238281 1043.46875 C 236.117188 1044.632812 234.941406 1045.734375 233.710938 1046.785156 C 232.480469 1047.832031 231.203125 1048.816406 229.878906 1049.742188 C 228.554688 1050.667969 227.1875 1051.527344 225.78125 1052.320312 C 224.375 1053.113281 222.933594 1053.835938 221.457031 1054.492188 C 219.976562 1055.144531 218.472656 1055.726562 216.941406 1056.234375 C 215.40625 1056.746094 213.851562 1057.179688 212.277344 1057.539062 C 210.703125 1057.898438 209.113281 1058.179688 207.511719 1058.386719 C 205.910156 1058.59375 204.300781 1058.722656 202.6875 1058.773438 C 201.074219 1058.824219 199.460938 1058.800781 197.847656 1058.695312 C 196.234375 1058.589844 194.632812 1058.410156 193.039062 1058.152344 C 191.445312 1057.894531 189.867188 1057.558594 188.304688 1057.148438 C 186.742188 1056.738281 185.203125 1056.253906 183.6875 1055.695312 C 182.171875 1055.136719 180.683594 1054.503906 179.230469 1053.804688 C 177.777344 1053.101562 176.359375 1052.332031 174.976562 1051.492188 C 173.597656 1050.652344 172.257812 1049.75 170.964844 1048.78125 C 169.671875 1047.816406 168.425781 1046.789062 167.234375 1045.699219 C 166.039062 1044.613281 164.898438 1043.472656 163.8125 1042.273438 C 162.730469 1041.078125 161.703125 1039.832031 160.738281 1038.535156 C 159.773438 1037.238281 158.875 1035.902344 158.039062 1034.519531 C 157.203125 1033.136719 156.4375 1031.714844 155.738281 1030.257812 C 155.039062 1028.804688 154.410156 1027.316406 153.855469 1025.800781 C 153.300781 1024.28125 152.820312 1022.742188 152.410156 1021.179688 C 152.003906 1019.617188 151.671875 1018.035156 151.417969 1016.441406 C 151.164062 1014.847656 150.984375 1013.242188 150.882812 1011.628906 C 141.875 1009.792969 133.046875 1007.308594 124.402344 1004.183594 C 115.753906 1001.058594 107.378906 997.324219 99.277344 992.976562 C 91.175781 988.632812 83.433594 983.71875 76.046875 978.246094 C 68.660156 972.769531 61.710938 966.789062 55.195312 960.300781 C 50.847656 955.960938 46.71875 951.421875 42.820312 946.679688 C 38.917969 941.933594 35.257812 937.007812 31.84375 931.902344 C 28.425781 926.796875 25.269531 921.539062 22.375 916.121094 C 19.476562 910.703125 16.855469 905.15625 14.503906 899.480469 C 12.15625 893.804688 10.089844 888.027344 8.308594 882.148438 C 6.53125 876.269531 5.042969 870.316406 3.851562 864.292969 C 2.660156 858.265625 1.765625 852.195312 1.175781 846.082031 C 0.582031 839.96875 0.289062 833.839844 0.300781 827.695312 L 0.300781 620.640625 C 0.378906 604.292969 1.15625 587.980469 2.636719 571.703125 C 4.113281 555.421875 6.285156 539.238281 9.152344 523.144531 C 12.019531 507.050781 15.570312 491.113281 19.808594 475.324219 C 24.042969 459.535156 28.945312 443.960938 34.519531 428.59375 C 44.449219 401.390625 56.425781 375.117188 70.441406 349.777344 C 84.457031 324.4375 100.34375 300.332031 118.109375 277.460938 C 115.386719 272.570312 113.347656 267.410156 111.992188 261.980469 C 110.636719 256.550781 110.011719 251.039062 110.117188 245.441406 C 110.089844 243 110.183594 240.566406 110.402344 238.136719 C 110.621094 235.707031 110.960938 233.292969 111.421875 230.898438 C 111.882812 228.503906 112.464844 226.136719 113.164062 223.800781 C 113.863281 221.460938 114.679688 219.164062 115.609375 216.910156 C 116.539062 214.65625 117.582031 212.453125 118.734375 210.304688 C 119.890625 208.152344 121.148438 206.066406 122.511719 204.042969 C 123.875 202.019531 125.335938 200.070312 126.894531 198.195312 C 128.453125 196.316406 130.105469 194.523438 131.84375 192.816406 C 137.121094 187.566406 142.488281 182.414062 147.953125 177.363281 C 153.417969 172.308594 158.972656 167.359375 164.617188 162.507812 C 170.265625 157.660156 175.996094 152.917969 181.816406 148.277344 C 187.636719 143.636719 193.539062 139.109375 199.523438 134.683594 C 205.507812 130.261719 211.574219 125.953125 217.71875 121.75 C 223.863281 117.550781 230.082031 113.464844 236.375 109.492188 C 242.667969 105.519531 249.03125 101.664062 255.464844 97.925781 C 261.902344 94.1875 268.402344 90.570312 274.96875 87.066406 C 281.539062 83.566406 288.167969 80.1875 294.859375 76.933594 C 301.550781 73.675781 308.296875 70.539062 315.105469 67.53125 C 321.910156 64.519531 328.769531 61.636719 335.683594 58.878906 C 342.59375 56.121094 349.554688 53.488281 356.5625 50.984375 C 363.570312 48.484375 370.625 46.109375 377.71875 43.863281 C 384.816406 41.621094 391.949219 39.503906 399.121094 37.523438 C 406.292969 35.539062 413.5 33.6875 420.742188 31.96875 C 427.984375 30.25 435.253906 28.664062 442.550781 27.210938 C 449.851562 25.761719 457.175781 24.441406 464.523438 23.257812 C 471.867188 22.074219 479.234375 21.027344 486.621094 20.113281 C 494.007812 19.199219 501.40625 18.421875 508.820312 17.777344 C 516.234375 17.136719 523.660156 16.628906 531.089844 16.257812 C 538.523438 15.886719 545.960938 15.652344 553.402344 15.558594 C 560.84375 15.460938 568.285156 15.496094 575.726562 15.671875 C 583.164062 15.847656 590.597656 16.160156 598.027344 16.609375 C 605.457031 17.054688 612.875 17.640625 620.28125 18.359375 C 627.6875 19.078125 635.078125 19.933594 642.457031 20.925781 C 649.832031 21.914062 657.1875 23.039062 664.519531 24.300781 C 671.855469 25.5625 679.164062 26.957031 686.449219 28.484375 C 693.730469 30.011719 700.984375 31.675781 708.207031 33.46875 C 715.429688 35.261719 722.617188 37.1875 729.769531 39.246094 C 736.921875 41.304688 744.03125 43.492188 751.105469 45.8125 C 758.175781 48.128906 765.203125 50.578125 772.183594 53.152344 C 779.167969 55.730469 786.097656 58.433594 792.980469 61.261719 C 811.351562 68.835938 829.300781 77.296875 846.832031 86.648438 C 864.363281 96.003906 881.386719 106.203125 897.90625 117.246094 C 914.421875 128.289062 930.351562 140.125 945.695312 152.75 C 961.039062 165.375 975.71875 178.730469 989.734375 192.816406 C 991.472656 194.523438 993.125 196.316406 994.683594 198.195312 C 996.242188 200.070312 997.703125 202.019531 999.066406 204.042969 C 1000.429688 206.066406 1001.691406 208.152344 1002.84375 210.304688 C 1003.996094 212.453125 1005.039062 214.65625 1005.96875 216.910156 C 1006.898438 219.164062 1007.714844 221.460938 1008.414062 223.800781 C 1009.113281 226.136719 1009.695312 228.503906 1010.15625 230.898438 C 1010.617188 233.292969 1010.957031 235.707031 1011.175781 238.136719 C 1011.394531 240.566406 1011.488281 243 1011.460938 245.441406 C 1011.222656 250.992188 1010.425781 256.464844 1009.078125 261.859375 C 1007.726562 267.25 1005.851562 272.449219 1003.445312 277.460938 C 1021.199219 300.332031 1037.078125 324.4375 1051.082031 349.777344 C 1065.085938 375.117188 1077.046875 401.390625 1086.960938 428.59375 C 1092.671875 443.929688 1097.683594 459.492188 1101.988281 475.28125 C 1106.296875 491.066406 1109.886719 507.019531 1112.753906 523.132812 C 1115.625 539.242188 1117.761719 555.453125 1119.167969 571.757812 C 1120.574219 588.0625 1121.246094 604.398438 1121.179688 620.761719 Z M 1124.601562 620.640625"/></g><path fill="#F5F8FA" d="M 349.984375 797.167969 L 387.648438 797.167969 L 387.648438 993.519531 L 349.984375 993.519531 Z M 349.984375 797.167969"/><path fill="#F5F8FA" d="M 427.460938 672.460938 L 465.125 672.460938 L 465.125 993.492188 L 427.460938 993.492188 Z M 427.460938 672.460938"/><path fill="#F5F8FA" d="M 504.941406 720.222656 L 542.605469 720.222656 L 542.605469 993.519531 L 504.941406 993.519531 Z M 504.941406 720.222656"/><path fill="#F5F8FA" d="M 582.394531 598.175781 L 620.058594 598.175781 L 620.058594 993.519531 L 582.394531 993.519531 Z M 582.394531 598.175781"/><path fill="#F5F8FA" d="M 659.875 672.460938 L 697.539062 672.460938 L 697.539062 993.492188 L 659.875 993.492188 Z M 659.875 672.460938"/><path fill="#F5F8FA" d="M 737.328125 752.070312 L 774.992188 752.070312 L 774.992188 993.519531 L 737.328125 993.519531 Z M 737.328125 752.070312"/><path fill="#D5FCFF" d="M 690.316406 378.414062 C 686.210938 377 681.949219 375.660156 677.546875 374.394531 C 678.277344 371.453125 678.941406 368.546875 679.53125 365.691406 C 689.1875 318.816406 682.878906 281.054688 661.292969 268.621094 C 640.589844 256.699219 606.746094 269.128906 572.5625 298.847656 C 569.277344 301.703125 565.976562 304.730469 562.691406 307.898438 C 560.492188 305.800781 558.308594 303.777344 556.121094 301.835938 C 520.296875 270.0625 484.386719 256.667969 462.824219 269.136719 C 442.148438 281.09375 436.027344 316.597656 444.730469 361.019531 C 445.570312 365.3125 446.550781 369.695312 447.660156 374.148438 C 442.582031 375.589844 437.675781 377.125 432.980469 378.761719 C 390.980469 393.390625 364.160156 416.316406 364.160156 440.097656 C 364.160156 464.648438 392.953125 489.292969 436.699219 504.230469 C 440.148438 505.410156 443.730469 506.523438 447.421875 507.574219 C 446.226562 512.390625 445.183594 517.109375 444.308594 521.722656 C 436.011719 565.378906 442.492188 600.039062 463.109375 611.910156 C 484.410156 624.1875 520.15625 611.570312 554.960938 581.183594 C 557.71875 578.785156 560.476562 576.230469 563.234375 573.566406 C 566.828125 577.003906 570.410156 580.269531 573.957031 583.335938 C 607.675781 612.316406 640.976562 624.015625 661.570312 612.113281 C 682.847656 599.804688 689.773438 562.5625 680.785156 517.265625 C 680.105469 513.796875 679.300781 510.269531 678.417969 506.675781 C 680.925781 505.933594 683.390625 505.160156 685.792969 504.371094 C 731.273438 489.308594 760.855469 464.988281 760.855469 440.097656 C 760.855469 416.226562 733.164062 393.148438 690.316406 378.414062 Z M 680.460938 488.300781 C 678.292969 489.015625 676.0625 489.710938 673.796875 490.378906 C 668.777344 474.511719 662.007812 457.621094 653.699219 440.175781 C 661.617188 423.144531 668.125 406.480469 673.007812 390.707031 C 677.066406 391.878906 681.003906 393.117188 684.800781 394.421875 C 721.511719 407.046875 743.902344 425.714844 743.902344 440.097656 C 743.902344 455.40625 719.726562 475.300781 680.460938 488.300781 Z M 664.160156 520.546875 C 668.140625 540.578125 668.699219 558.691406 666.066406 572.855469 C 663.710938 585.582031 658.953125 594.0625 653.082031 597.453125 C 640.574219 604.683594 613.84375 595.285156 585.023438 570.503906 C 581.707031 567.652344 578.375 564.621094 575.042969 561.414062 C 586.214844 549.203125 597.386719 535.007812 608.296875 519.230469 C 627.464844 517.542969 645.582031 514.757812 662.019531 510.964844 C 662.828125 514.230469 663.539062 517.421875 664.160156 520.546875 Z M 499.40625 596.199219 C 487.191406 600.519531 477.464844 600.640625 471.585938 597.253906 C 459.070312 590.039062 453.871094 562.207031 460.964844 524.882812 C 461.777344 520.609375 462.746094 516.214844 463.859375 511.722656 C 480.109375 515.316406 498.097656 517.902344 517.320312 519.449219 C 528.296875 534.882812 539.796875 549.0625 551.371094 561.476562 C 548.84375 563.921875 546.320312 566.246094 543.808594 568.429688 C 528.421875 581.878906 513 591.417969 499.40625 596.199219 Z M 442.183594 488.210938 C 422.84375 481.601562 406.867188 473.023438 395.917969 463.644531 C 386.078125 455.238281 381.109375 446.878906 381.109375 440.097656 C 381.109375 425.667969 402.644531 407.257812 438.5625 394.75 C 442.921875 393.230469 447.484375 391.800781 452.21875 390.457031 C 457.183594 406.585938 463.695312 423.457031 471.554688 440.5 C 463.59375 457.808594 456.988281 474.941406 451.976562 491.273438 C 448.601562 490.300781 445.332031 489.277344 442.183594 488.210938 Z M 461.367188 357.769531 C 453.910156 319.707031 458.863281 290.996094 471.324219 283.789062 C 484.59375 276.117188 513.9375 287.058594 544.863281 314.496094 C 546.847656 316.25 548.828125 318.082031 550.828125 319.984375 C 539.300781 332.347656 527.910156 346.421875 517.027344 361.761719 C 498.371094 363.488281 480.511719 366.261719 464.09375 369.980469 C 463.0625 365.832031 462.148438 361.753906 461.367188 357.769531 Z M 632.472656 399.980469 C 628.550781 393.207031 624.523438 386.59375 620.417969 380.160156 C 633.078125 381.761719 645.195312 383.882812 656.582031 386.480469 C 653.175781 397.425781 648.914062 408.867188 643.894531 420.609375 C 640.296875 413.777344 636.484375 406.898438 632.472656 399.980469 Z M 562.695312 332.082031 C 570.519531 340.542969 578.34375 349.988281 586.046875 360.234375 C 578.28125 359.871094 570.425781 359.679688 562.507812 359.679688 C 554.667969 359.679688 546.871094 359.863281 539.15625 360.226562 C 546.855469 350.070312 554.761719 340.640625 562.695312 332.082031 Z M 492.46875 400.097656 C 488.550781 406.890625 484.8125 413.734375 481.269531 420.59375 C 476.335938 408.898438 472.113281 397.402344 468.667969 386.300781 C 479.984375 383.769531 492.054688 381.699219 504.632812 380.132812 C 500.464844 386.625 496.402344 393.285156 492.46875 400.097656 Z M 504.992188 501.257812 C 492 499.820312 479.746094 497.855469 468.433594 495.394531 C 471.9375 484.09375 476.25 472.359375 481.289062 460.40625 C 484.839844 467.265625 488.589844 474.105469 492.535156 480.917969 L 492.539062 480.917969 C 496.554688 487.855469 500.71875 494.632812 504.992188 501.257812 Z M 563.160156 549.292969 C 555.132812 540.640625 547.121094 531.058594 539.296875 520.765625 C 546.886719 521.058594 554.636719 521.214844 562.507812 521.214844 C 570.597656 521.214844 578.59375 521.027344 586.449219 520.6875 C 578.730469 531.167969 570.921875 540.765625 563.160156 549.292969 Z M 644.046875 459.804688 C 649.347656 471.878906 653.824219 483.550781 657.375 494.664062 C 645.875 497.28125 633.449219 499.386719 620.371094 500.964844 C 624.492188 494.449219 628.550781 487.714844 632.550781 480.792969 C 636.59375 473.796875 640.421875 466.785156 644.046875 459.804688 Z M 617.859375 472.34375 C 611.660156 483.085938 605.292969 493.332031 598.832031 503.007812 C 587.070312 503.84375 574.90625 504.277344 562.507812 504.277344 C 550.15625 504.277344 538.148438 503.90625 526.589844 503.148438 C 519.863281 493.347656 513.363281 483.070312 507.203125 472.433594 C 501.058594 461.832031 495.402344 451.132812 490.277344 440.5 C 495.398438 429.847656 501.042969 419.136719 507.152344 408.554688 C 513.277344 397.941406 519.722656 387.710938 526.386719 377.964844 C 538.179688 377.074219 550.28125 376.609375 562.507812 376.609375 C 574.796875 376.609375 586.898438 377.078125 598.691406 377.976562 C 605.261719 387.648438 611.660156 397.847656 617.8125 408.464844 C 624.027344 419.199219 629.746094 429.832031 634.90625 440.269531 C 629.761719 450.871094 624.058594 461.613281 617.859375 472.34375 Z M 652.820312 283.28125 C 666.113281 290.9375 671.273438 321.800781 662.921875 362.273438 C 662.394531 364.855469 661.789062 367.484375 661.140625 370.148438 C 644.683594 366.355469 626.816406 363.535156 608.113281 361.78125 C 597.203125 346.273438 585.90625 332.175781 574.5625 319.972656 C 577.617188 317.042969 580.667969 314.246094 583.691406 311.613281 C 612.976562 286.152344 640.359375 276.097656 652.820312 283.28125 Z M 562.507812 404.703125 C 582.0625 404.703125 597.933594 420.542969 597.933594 440.09375 C 597.933594 459.628906 582.0625 475.480469 562.507812 475.480469 C 542.953125 475.480469 527.085938 459.628906 527.085938 440.09375 C 527.085938 420.542969 542.953125 404.703125 562.507812 404.703125 Z M 562.507812 404.703125"/></svg>