<svg xmlns="http://www.w3.org/2000/svg" width="1125" viewBox="0 0 1125 1125" height="1125" version="1.0"><defs><clipPath id="a"><path d="M 5.527344 286.210938 L 561.277344 286.210938 L 561.277344 801.460938 L 5.527344 801.460938 Z M 5.527344 286.210938"/></clipPath><clipPath id="b"><path d="M 196.691406 405 L 369.941406 405 L 369.941406 560 L 196.691406 560 Z M 196.691406 405"/></clipPath></defs><g clip-path="url(#a)"><path fill="#F5F8FA" d="M 561.082031 585.082031 L 561.082031 687.34375 C 561.082031 689.941406 560.972656 692.535156 560.753906 695.121094 C 560.535156 697.710938 560.207031 700.285156 559.773438 702.84375 C 559.339844 705.40625 558.796875 707.941406 558.152344 710.457031 C 557.503906 712.972656 556.75 715.457031 555.894531 717.90625 C 555.039062 720.359375 554.082031 722.769531 553.023438 725.144531 C 551.964844 727.515625 550.808594 729.835938 549.554688 732.113281 C 548.300781 734.386719 546.957031 736.605469 545.515625 738.765625 C 544.078125 740.929688 542.550781 743.027344 540.933594 745.058594 C 539.320312 747.09375 537.621094 749.054688 535.839844 750.945312 C 534.058594 752.835938 532.203125 754.652344 530.269531 756.386719 C 528.339844 758.121094 526.335938 759.773438 524.265625 761.339844 C 522.195312 762.90625 520.0625 764.386719 517.867188 765.773438 C 515.671875 767.164062 513.421875 768.457031 511.121094 769.65625 C 508.816406 770.855469 506.464844 771.957031 504.070312 772.960938 C 501.671875 773.960938 499.238281 774.863281 496.769531 775.660156 C 494.296875 776.460938 491.796875 777.152344 489.265625 777.742188 C 489.230469 778.542969 489.15625 779.339844 489.042969 780.136719 C 488.929688 780.929688 488.78125 781.71875 488.589844 782.5 C 488.402344 783.277344 488.175781 784.046875 487.910156 784.804688 C 487.648438 785.5625 487.347656 786.308594 487.011719 787.035156 C 486.675781 787.765625 486.308594 788.476562 485.902344 789.167969 C 485.496094 789.863281 485.058594 790.535156 484.589844 791.1875 C 484.121094 791.835938 483.621094 792.464844 483.089844 793.066406 C 482.558594 793.667969 482 794.242188 481.414062 794.792969 C 480.828125 795.339844 480.214844 795.859375 479.578125 796.347656 C 478.945312 796.835938 478.285156 797.292969 477.605469 797.71875 C 476.921875 798.144531 476.222656 798.535156 475.503906 798.894531 C 474.785156 799.25 474.050781 799.570312 473.300781 799.859375 C 472.550781 800.144531 471.789062 800.394531 471.015625 800.605469 C 470.238281 800.816406 469.457031 800.992188 468.667969 801.128906 C 467.875 801.265625 467.078125 801.363281 466.277344 801.421875 C 465.476562 801.480469 464.675781 801.503906 463.875 801.484375 C 463.070312 801.464844 462.273438 801.410156 461.472656 801.3125 C 460.675781 801.21875 459.886719 801.082031 459.101562 800.910156 C 458.320312 800.738281 457.546875 800.527344 456.78125 800.28125 C 456.015625 800.03125 455.265625 799.75 454.53125 799.429688 C 453.796875 799.109375 453.078125 798.753906 452.375 798.363281 C 451.671875 797.972656 450.992188 797.550781 450.332031 797.097656 C 449.667969 796.640625 449.03125 796.152344 448.417969 795.636719 C 447.804688 795.117188 447.21875 794.570312 446.65625 793.996094 C 446.097656 793.421875 445.566406 792.824219 445.0625 792.195312 C 444.558594 791.570312 444.089844 790.921875 443.648438 790.25 C 443.210938 789.578125 442.804688 788.886719 442.429688 788.175781 C 442.058594 787.464844 441.722656 786.738281 441.417969 785.996094 C 441.117188 785.25 440.851562 784.496094 440.625 783.726562 C 440.394531 782.957031 440.203125 782.175781 440.050781 781.390625 C 439.898438 780.601562 439.78125 779.808594 439.707031 779.007812 C 439.628906 778.210938 439.589844 777.410156 439.59375 776.605469 L 439.59375 597.515625 C 439.601562 596.703125 439.648438 595.890625 439.730469 595.085938 C 439.816406 594.277344 439.941406 593.472656 440.105469 592.675781 C 440.269531 591.878906 440.472656 591.09375 440.714844 590.316406 C 440.953125 589.539062 441.230469 588.777344 441.546875 588.027344 C 441.859375 587.277344 442.210938 586.546875 442.597656 585.828125 C 442.984375 585.113281 443.402344 584.417969 443.855469 583.742188 C 444.308594 583.070312 444.792969 582.417969 445.3125 581.789062 C 445.828125 581.160156 446.375 580.5625 446.949219 579.984375 C 447.523438 579.410156 448.125 578.867188 448.753906 578.351562 C 449.382812 577.832031 450.035156 577.347656 450.710938 576.894531 C 451.386719 576.445312 452.082031 576.023438 452.796875 575.640625 C 453.515625 575.253906 454.246094 574.90625 454.996094 574.589844 C 455.746094 574.277344 456.511719 574 457.289062 573.761719 C 458.066406 573.519531 458.851562 573.320312 459.648438 573.15625 C 460.445312 572.992188 461.25 572.871094 462.058594 572.785156 C 462.867188 572.699219 463.675781 572.652344 464.488281 572.648438 C 465.308594 572.636719 466.125 572.664062 466.941406 572.734375 C 467.757812 572.804688 468.570312 572.917969 469.375 573.066406 C 470.179688 573.21875 470.972656 573.410156 471.757812 573.640625 C 472.546875 573.871094 473.316406 574.140625 474.078125 574.449219 C 474.835938 574.757812 475.578125 575.105469 476.300781 575.488281 C 477.023438 575.871094 477.726562 576.289062 478.410156 576.742188 C 479.089844 577.195312 479.75 577.679688 480.382812 578.199219 C 481.015625 578.71875 481.621094 579.269531 482.199219 579.847656 C 482.777344 580.429688 483.328125 581.035156 483.84375 581.671875 C 484.363281 582.304688 484.84375 582.964844 485.296875 583.648438 C 485.75 584.332031 486.164062 585.035156 486.546875 585.761719 C 486.925781 586.484375 487.269531 587.226562 487.574219 587.988281 C 487.882812 588.746094 488.148438 589.519531 488.378906 590.304688 C 488.605469 591.089844 488.796875 591.886719 488.945312 592.691406 C 489.09375 593.496094 489.203125 594.308594 489.269531 595.125 C 489.339844 595.941406 489.363281 596.757812 489.351562 597.578125 C 497.386719 599.507812 505.042969 602.429688 512.320312 606.34375 C 519.597656 610.257812 526.257812 615.03125 532.296875 620.671875 L 532.296875 585.082031 C 532.199219 570.535156 530.867188 556.097656 528.308594 541.777344 C 525.746094 527.453125 521.996094 513.453125 517.046875 499.769531 C 508.003906 476.613281 496.136719 454.015625 480.824219 434.242188 C 476.949219 435.355469 472.992188 435.917969 468.957031 435.929688 C 459.296875 435.929688 450.304688 431.972656 442.960938 425.199219 L 442.394531 424.632812 C 432.085938 413.996094 420.789062 404.539062 408.507812 396.257812 C 396.230469 387.976562 383.226562 381.046875 369.503906 375.472656 C 362.65625 372.683594 355.691406 370.226562 348.605469 368.109375 C 341.523438 365.996094 334.351562 364.226562 327.097656 362.800781 C 319.84375 361.378906 312.535156 360.3125 305.175781 359.597656 C 297.816406 358.882812 290.441406 358.523438 283.046875 358.523438 C 275.652344 358.523438 268.277344 358.882812 260.917969 359.597656 C 253.558594 360.3125 246.25 361.378906 238.996094 362.800781 C 231.738281 364.226562 224.570312 365.996094 217.484375 368.109375 C 210.402344 370.226562 203.4375 372.683594 196.589844 375.472656 C 182.976562 381.257812 170.042969 388.28125 157.78125 396.550781 C 145.519531 404.820312 134.160156 414.179688 123.699219 424.632812 L 122.574219 425.765625 C 120.886719 427.300781 119.074219 428.667969 117.136719 429.867188 C 115.195312 431.070312 113.164062 432.082031 111.035156 432.90625 C 108.910156 433.734375 106.726562 434.355469 104.484375 434.78125 C 102.246094 435.203125 99.984375 435.417969 97.703125 435.425781 C 93.671875 435.414062 89.71875 434.851562 85.847656 433.734375 C 78.125 443.640625 71.230469 454.085938 65.15625 465.078125 C 59.082031 476.070312 53.902344 487.46875 49.625 499.273438 C 44.566406 512.910156 40.765625 526.890625 38.222656 541.214844 C 35.683594 555.535156 34.4375 569.96875 34.496094 584.515625 L 34.496094 620.117188 C 37.625 617.101562 40.953125 614.328125 44.480469 611.796875 C 48.007812 609.261719 51.699219 606.996094 55.554688 604.996094 C 59.410156 602.992188 63.386719 601.277344 67.488281 599.847656 C 71.589844 598.417969 75.773438 597.292969 80.039062 596.464844 C 80.066406 595.652344 80.132812 594.84375 80.238281 594.035156 C 80.34375 593.230469 80.492188 592.429688 80.675781 591.636719 C 80.859375 590.84375 81.085938 590.0625 81.347656 589.292969 C 81.609375 588.523438 81.90625 587.765625 82.242188 587.027344 C 82.578125 586.285156 82.949219 585.5625 83.359375 584.855469 C 83.765625 584.152344 84.207031 583.46875 84.679688 582.808594 C 85.15625 582.148438 85.660156 581.511719 86.195312 580.898438 C 86.734375 580.289062 87.300781 579.703125 87.894531 579.148438 C 88.488281 578.589844 89.109375 578.066406 89.753906 577.570312 C 90.398438 577.074219 91.066406 576.613281 91.757812 576.183594 C 92.449219 575.753906 93.160156 575.359375 93.890625 575 C 94.621094 574.640625 95.367188 574.316406 96.128906 574.03125 C 96.890625 573.746094 97.664062 573.496094 98.449219 573.285156 C 99.238281 573.074219 100.03125 572.902344 100.835938 572.773438 C 101.636719 572.640625 102.445312 572.546875 103.257812 572.492188 C 104.070312 572.441406 104.882812 572.429688 105.695312 572.453125 C 106.507812 572.480469 107.320312 572.546875 108.125 572.65625 C 108.933594 572.761719 109.734375 572.90625 110.523438 573.09375 C 111.316406 573.277344 112.097656 573.5 112.871094 573.761719 C 113.640625 574.023438 114.394531 574.324219 115.136719 574.660156 C 115.878906 574.996094 116.601562 575.367188 117.304688 575.773438 C 118.011719 576.179688 118.695312 576.621094 119.355469 577.09375 C 120.015625 577.570312 120.652344 578.074219 121.265625 578.613281 C 121.878906 579.148438 122.460938 579.714844 123.015625 580.308594 C 123.574219 580.902344 124.097656 581.523438 124.59375 582.167969 C 125.089844 582.8125 125.550781 583.480469 125.980469 584.171875 C 126.410156 584.863281 126.804688 585.574219 127.164062 586.304688 C 127.523438 587.035156 127.847656 587.78125 128.132812 588.542969 C 128.421875 589.304688 128.667969 590.078125 128.878906 590.863281 C 129.089844 591.648438 129.261719 592.445312 129.394531 593.246094 C 129.527344 594.050781 129.617188 594.859375 129.671875 595.671875 C 129.726562 596.480469 129.738281 597.292969 129.710938 598.109375 L 129.710938 776.605469 C 129.710938 777.402344 129.675781 778.199219 129.597656 778.996094 C 129.523438 779.789062 129.410156 780.578125 129.257812 781.359375 C 129.105469 782.144531 128.917969 782.917969 128.691406 783.683594 C 128.464844 784.449219 128.203125 785.199219 127.902344 785.941406 C 127.605469 786.679688 127.273438 787.40625 126.902344 788.113281 C 126.535156 788.820312 126.132812 789.507812 125.699219 790.175781 C 125.261719 790.847656 124.796875 791.492188 124.300781 792.117188 C 123.804688 792.742188 123.277344 793.339844 122.722656 793.914062 C 122.167969 794.488281 121.585938 795.03125 120.980469 795.550781 C 120.371094 796.066406 119.742188 796.554688 119.085938 797.011719 C 118.433594 797.46875 117.757812 797.890625 117.0625 798.285156 C 116.367188 798.675781 115.65625 799.03125 114.925781 799.355469 C 114.195312 799.679688 113.453125 799.964844 112.695312 800.21875 C 111.9375 800.46875 111.167969 800.683594 110.390625 800.863281 C 109.613281 801.039062 108.828125 801.179688 108.039062 801.28125 C 107.246094 801.382812 106.453125 801.445312 105.652344 801.472656 C 104.855469 801.496094 104.058594 801.484375 103.261719 801.433594 C 102.464844 801.382812 101.675781 801.292969 100.886719 801.164062 C 100.097656 801.035156 99.320312 800.871094 98.546875 800.667969 C 97.777344 800.464844 97.015625 800.226562 96.265625 799.949219 C 95.519531 799.675781 94.785156 799.363281 94.066406 799.015625 C 93.347656 798.667969 92.648438 798.289062 91.964844 797.875 C 91.28125 797.460938 90.621094 797.015625 89.984375 796.539062 C 89.34375 796.058594 88.730469 795.550781 88.140625 795.015625 C 87.546875 794.476562 86.984375 793.914062 86.449219 793.324219 C 85.914062 792.730469 85.40625 792.117188 84.929688 791.476562 C 84.453125 790.835938 84.011719 790.175781 83.597656 789.492188 C 83.183594 788.808594 82.804688 788.109375 82.460938 787.386719 C 82.113281 786.667969 81.804688 785.933594 81.53125 785.1875 C 81.257812 784.4375 81.019531 783.675781 80.816406 782.902344 C 80.617188 782.132812 80.453125 781.351562 80.324219 780.5625 C 80.199219 779.777344 80.113281 778.984375 80.0625 778.1875 C 75.613281 777.28125 71.25 776.054688 66.980469 774.511719 C 62.707031 772.96875 58.570312 771.121094 54.570312 768.976562 C 50.566406 766.828125 46.742188 764.402344 43.09375 761.699219 C 39.445312 758.996094 36.011719 756.039062 32.792969 752.835938 C 30.644531 750.695312 28.605469 748.453125 26.679688 746.109375 C 24.75 743.765625 22.941406 741.332031 21.253906 738.8125 C 19.566406 736.289062 18.007812 733.691406 16.578125 731.015625 C 15.148438 728.339844 13.851562 725.601562 12.691406 722.800781 C 11.53125 719.996094 10.507812 717.140625 9.628906 714.238281 C 8.75 711.335938 8.015625 708.394531 7.429688 705.417969 C 6.839844 702.441406 6.398438 699.445312 6.105469 696.425781 C 5.8125 693.40625 5.667969 690.378906 5.671875 687.34375 L 5.671875 585.082031 C 5.75 568.90625 7.207031 552.855469 10.046875 536.929688 C 12.886719 521.003906 17.0625 505.4375 22.578125 490.230469 C 27.484375 476.796875 33.398438 463.820312 40.324219 451.304688 C 47.246094 438.789062 55.097656 426.886719 63.871094 415.589844 C 62.527344 413.175781 61.519531 410.625 60.847656 407.945312 C 60.179688 405.261719 59.871094 402.539062 59.921875 399.773438 C 59.894531 397.359375 60.109375 394.964844 60.566406 392.59375 C 61.023438 390.21875 61.714844 387.917969 62.636719 385.683594 C 63.558594 383.449219 64.695312 381.332031 66.046875 379.328125 C 67.394531 377.324219 68.933594 375.476562 70.65625 373.785156 C 73.261719 371.191406 75.914062 368.648438 78.613281 366.152344 C 81.3125 363.65625 84.058594 361.210938 86.847656 358.816406 C 89.636719 356.421875 92.46875 354.078125 95.34375 351.785156 C 98.21875 349.496094 101.132812 347.257812 104.089844 345.074219 C 107.046875 342.890625 110.042969 340.761719 113.078125 338.6875 C 116.113281 336.613281 119.1875 334.59375 122.292969 332.632812 C 125.402344 330.671875 128.546875 328.765625 131.726562 326.917969 C 134.90625 325.074219 138.117188 323.285156 141.363281 321.554688 C 144.605469 319.828125 147.878906 318.160156 151.1875 316.550781 C 154.492188 314.941406 157.824219 313.394531 161.1875 311.90625 C 164.550781 310.421875 167.9375 308.996094 171.355469 307.632812 C 174.769531 306.269531 178.207031 304.972656 181.667969 303.734375 C 185.132812 302.5 188.613281 301.328125 192.121094 300.21875 C 195.625 299.109375 199.148438 298.066406 202.691406 297.085938 C 206.238281 296.105469 209.796875 295.191406 213.375 294.34375 C 216.949219 293.496094 220.542969 292.710938 224.148438 291.996094 C 227.753906 291.277344 231.371094 290.625 235 290.042969 C 238.628906 289.457031 242.269531 288.9375 245.917969 288.488281 C 249.566406 288.035156 253.222656 287.652344 256.886719 287.335938 C 260.546875 287.015625 264.214844 286.765625 267.886719 286.585938 C 271.558594 286.402344 275.230469 286.285156 278.910156 286.238281 C 282.585938 286.1875 286.261719 286.207031 289.9375 286.296875 C 293.609375 286.382812 297.285156 286.535156 300.953125 286.757812 C 304.621094 286.976562 308.289062 287.265625 311.945312 287.621094 C 315.605469 287.976562 319.257812 288.398438 322.902344 288.890625 C 326.542969 289.378906 330.179688 289.933594 333.800781 290.554688 C 337.425781 291.179688 341.035156 291.867188 344.632812 292.621094 C 348.230469 293.378906 351.8125 294.199219 355.382812 295.085938 C 358.949219 295.96875 362.5 296.921875 366.035156 297.9375 C 369.566406 298.953125 373.078125 300.035156 376.574219 301.179688 C 380.066406 302.324219 383.539062 303.535156 386.988281 304.804688 C 390.4375 306.078125 393.859375 307.414062 397.261719 308.8125 C 415.457031 316.308594 432.734375 325.523438 449.09375 336.460938 C 465.453125 347.398438 480.574219 359.835938 494.457031 373.785156 C 496.179688 375.476562 497.71875 377.324219 499.070312 379.328125 C 500.417969 381.332031 501.554688 383.449219 502.476562 385.683594 C 503.398438 387.917969 504.089844 390.21875 504.546875 392.59375 C 505.003906 394.964844 505.21875 397.359375 505.191406 399.773438 C 504.953125 405.316406 503.632812 410.589844 501.230469 415.589844 C 510.003906 426.886719 517.847656 438.789062 524.765625 451.304688 C 531.683594 463.820312 537.589844 476.796875 542.488281 490.230469 C 548.144531 505.410156 552.390625 520.976562 555.230469 536.921875 C 558.070312 552.871094 559.457031 568.945312 559.390625 585.140625 Z M 561.082031 585.082031"/></g><path fill="#F5F8FA" d="M 178.417969 672.265625 L 197.023438 672.265625 L 197.023438 769.242188 L 178.417969 769.242188 Z M 178.417969 672.265625"/><path fill="#F5F8FA" d="M 216.691406 610.675781 L 235.300781 610.675781 L 235.300781 769.230469 L 216.691406 769.230469 Z M 216.691406 610.675781"/><path fill="#F5F8FA" d="M 254.96875 634.265625 L 273.574219 634.265625 L 273.574219 769.242188 L 254.96875 769.242188 Z M 254.96875 634.265625"/><path fill="#F5F8FA" d="M 293.230469 573.988281 L 311.835938 573.988281 L 311.835938 769.242188 L 293.230469 769.242188 Z M 293.230469 573.988281"/><path fill="#F5F8FA" d="M 331.503906 610.675781 L 350.113281 610.675781 L 350.113281 769.230469 L 331.503906 769.230469 Z M 331.503906 610.675781"/><path fill="#F5F8FA" d="M 369.769531 649.992188 L 388.375 649.992188 L 388.375 769.242188 L 369.769531 769.242188 Z M 369.769531 649.992188"/><g clip-path="url(#b)"><path fill="#D5FCFF" d="M 339.015625 455.414062 C 337.226562 454.796875 335.371094 454.210938 333.453125 453.660156 C 333.769531 452.375 334.058594 451.105469 334.316406 449.859375 C 338.523438 429.386719 335.777344 412.894531 326.367188 407.464844 C 317.34375 402.257812 302.59375 407.6875 287.699219 420.664062 C 286.265625 421.914062 284.828125 423.234375 283.394531 424.617188 C 282.4375 423.703125 281.484375 422.816406 280.53125 421.96875 C 264.917969 408.09375 249.269531 402.242188 239.871094 407.691406 C 230.859375 412.910156 228.191406 428.417969 231.984375 447.816406 C 232.351562 449.691406 232.777344 451.605469 233.261719 453.550781 C 231.046875 454.179688 228.910156 454.851562 226.863281 455.566406 C 208.558594 461.953125 196.871094 471.96875 196.871094 482.351562 C 196.871094 493.074219 209.417969 503.839844 228.484375 510.363281 C 229.988281 510.878906 231.550781 511.363281 233.160156 511.824219 C 232.636719 513.925781 232.183594 515.988281 231.800781 518.003906 C 228.183594 537.066406 231.007812 552.207031 239.996094 557.390625 C 249.277344 562.753906 264.855469 557.242188 280.027344 543.972656 C 281.226562 542.921875 282.429688 541.808594 283.632812 540.644531 C 285.199219 542.144531 286.757812 543.570312 288.304688 544.910156 C 303 557.566406 317.515625 562.679688 326.488281 557.480469 C 335.761719 552.105469 338.78125 535.835938 334.863281 516.054688 C 334.566406 514.542969 334.214844 513 333.832031 511.429688 C 334.925781 511.105469 336 510.769531 337.046875 510.425781 C 356.867188 503.847656 369.757812 493.226562 369.757812 482.351562 C 369.757812 471.929688 357.691406 461.847656 339.015625 455.414062 Z M 334.722656 503.40625 C 333.777344 503.71875 332.804688 504.023438 331.816406 504.3125 C 329.628906 497.382812 326.679688 490.007812 323.058594 482.386719 C 326.511719 474.949219 329.347656 467.671875 331.472656 460.78125 C 333.242188 461.296875 334.957031 461.835938 336.613281 462.40625 C 352.613281 467.917969 362.371094 476.074219 362.371094 482.351562 C 362.371094 489.039062 351.835938 497.726562 334.722656 503.40625 Z M 327.617188 517.488281 C 329.351562 526.238281 329.597656 534.148438 328.449219 540.332031 C 327.421875 545.890625 325.347656 549.597656 322.789062 551.078125 C 317.339844 554.234375 305.6875 550.128906 293.128906 539.304688 C 291.683594 538.0625 290.230469 536.738281 288.777344 535.335938 C 293.648438 530.003906 298.515625 523.804688 303.269531 516.914062 C 311.625 516.175781 319.519531 514.960938 326.683594 513.304688 C 327.035156 514.730469 327.347656 516.125 327.617188 517.488281 Z M 255.8125 550.527344 C 250.492188 552.414062 246.25 552.46875 243.6875 550.988281 C 238.234375 547.839844 235.96875 535.683594 239.058594 519.382812 C 239.414062 517.515625 239.835938 515.597656 240.324219 513.636719 C 247.402344 515.203125 255.242188 516.332031 263.621094 517.007812 C 268.40625 523.75 273.417969 529.941406 278.460938 535.363281 C 277.359375 536.433594 276.257812 537.445312 275.164062 538.398438 C 268.460938 544.273438 261.738281 548.441406 255.8125 550.527344 Z M 230.875 503.367188 C 222.445312 500.480469 215.484375 496.734375 210.710938 492.636719 C 206.421875 488.964844 204.257812 485.316406 204.257812 482.351562 C 204.257812 476.050781 213.644531 468.011719 229.296875 462.546875 C 231.195312 461.882812 233.183594 461.261719 235.25 460.671875 C 237.414062 467.71875 240.25 475.085938 243.675781 482.527344 C 240.207031 490.085938 237.328125 497.570312 235.140625 504.703125 C 233.671875 504.277344 232.246094 503.832031 230.875 503.367188 Z M 239.234375 446.398438 C 235.984375 429.773438 238.144531 417.234375 243.574219 414.089844 C 249.359375 410.738281 262.148438 415.515625 275.625 427.5 C 276.488281 428.265625 277.355469 429.066406 278.226562 429.894531 C 273.199219 435.296875 268.238281 441.441406 263.496094 448.140625 C 255.363281 448.894531 247.578125 450.105469 240.421875 451.730469 C 239.972656 449.917969 239.574219 448.136719 239.234375 446.398438 Z M 313.808594 464.832031 C 312.097656 461.875 310.34375 458.988281 308.554688 456.175781 C 314.070312 456.875 319.351562 457.800781 324.316406 458.9375 C 322.828125 463.714844 320.972656 468.714844 318.785156 473.839844 C 317.21875 470.859375 315.554688 467.855469 313.808594 464.832031 Z M 283.394531 435.179688 C 286.808594 438.875 290.21875 443 293.574219 447.476562 C 290.191406 447.316406 286.765625 447.230469 283.316406 447.230469 C 279.898438 447.230469 276.5 447.3125 273.136719 447.46875 C 276.492188 443.035156 279.9375 438.917969 283.394531 435.179688 Z M 252.789062 464.882812 C 251.082031 467.851562 249.453125 470.839844 247.910156 473.835938 C 245.757812 468.726562 243.917969 463.707031 242.417969 458.859375 C 247.347656 457.753906 252.609375 456.847656 258.089844 456.164062 C 256.273438 459 254.503906 461.910156 252.789062 464.882812 Z M 258.25 509.066406 C 252.585938 508.4375 247.246094 507.578125 242.316406 506.503906 C 243.839844 501.566406 245.722656 496.441406 247.917969 491.222656 C 249.464844 494.21875 251.101562 497.207031 252.820312 500.179688 C 254.570312 503.210938 256.386719 506.171875 258.25 509.066406 Z M 283.597656 530.042969 C 280.101562 526.265625 276.609375 522.078125 273.199219 517.582031 C 276.507812 517.710938 279.882812 517.78125 283.316406 517.78125 C 286.839844 517.78125 290.324219 517.699219 293.75 517.550781 C 290.386719 522.125 286.980469 526.320312 283.597656 530.042969 Z M 318.851562 490.960938 C 321.160156 496.234375 323.113281 501.332031 324.660156 506.183594 C 319.648438 507.328125 314.234375 508.246094 308.53125 508.9375 C 310.328125 506.089844 312.097656 503.148438 313.839844 500.128906 C 315.605469 497.070312 317.273438 494.007812 318.851562 490.960938 Z M 307.4375 496.4375 C 304.738281 501.128906 301.960938 505.605469 299.144531 509.828125 C 294.019531 510.195312 288.71875 510.382812 283.316406 510.382812 C 277.933594 510.382812 272.699219 510.222656 267.660156 509.890625 C 264.730469 505.609375 261.894531 501.121094 259.210938 496.476562 C 256.535156 491.84375 254.070312 487.171875 251.835938 482.527344 C 254.066406 477.878906 256.527344 473.199219 259.191406 468.578125 L 259.1875 468.578125 C 261.859375 463.941406 264.667969 459.472656 267.574219 455.21875 C 272.710938 454.828125 277.988281 454.625 283.316406 454.625 C 288.671875 454.625 293.945312 454.832031 299.085938 455.222656 C 301.949219 459.449219 304.738281 463.902344 307.417969 468.539062 C 310.125 473.226562 312.617188 477.871094 314.867188 482.429688 C 312.625 487.058594 310.140625 491.75 307.4375 496.4375 Z M 322.675781 413.867188 C 328.46875 417.210938 330.71875 430.6875 327.078125 448.363281 C 326.847656 449.492188 326.585938 450.640625 326.300781 451.804688 C 319.128906 450.148438 311.34375 448.914062 303.191406 448.148438 C 298.4375 441.378906 293.511719 435.21875 288.570312 429.890625 C 289.898438 428.609375 291.230469 427.390625 292.546875 426.238281 C 305.3125 415.121094 317.246094 410.730469 322.675781 413.867188 Z M 283.316406 466.894531 C 291.839844 466.894531 298.753906 473.8125 298.753906 482.351562 C 298.753906 490.882812 291.839844 497.804688 283.316406 497.804688 C 274.792969 497.804688 267.875 490.882812 267.875 482.351562 C 267.875 473.8125 274.792969 466.894531 283.316406 466.894531 Z M 283.316406 466.894531"/></g><g fill="#D5FCFF"><g><g><path d="M 102.285156 0 L 87.414062 -76.601562 L 67.363281 -76.601562 L 51.480469 -22.867188 L 35.484375 -76.601562 L 15.433594 -76.601562 L 0.5625 0 L 19.148438 0 L 28.160156 -52.832031 L 43.144531 0 L 59.703125 0 L 74.6875 -52.832031 L 83.699219 0 Z M 102.285156 0" transform="translate(591.866 492.122)"/></g></g></g><g fill="#D5FCFF"><g><g><path d="M 51.480469 -76.601562 L 51.480469 -32.328125 C 51.480469 -21.742188 48.324219 -15.769531 36.722656 -15.769531 C 25.234375 -15.769531 21.964844 -21.742188 21.964844 -32.328125 L 21.964844 -76.601562 L 5.070312 -76.601562 L 5.070312 -29.851562 C 5.070312 -9.460938 16.785156 1.125 36.722656 1.125 C 56.660156 1.125 68.378906 -9.460938 68.378906 -29.851562 L 68.378906 -76.601562 Z M 51.480469 -76.601562" transform="translate(730.31 492.122)"/></g></g></g><g fill="#D5FCFF"><g><g><path d="M 36.496094 -11.941406 C 28.160156 -11.941406 20.953125 -16.109375 20.5 -25.234375 L 3.378906 -25.234375 C 3.492188 -6.535156 18.925781 1.800781 35.820312 1.800781 C 51.480469 1.800781 67.589844 -4.84375 67.589844 -22.867188 C 67.589844 -52.042969 23.316406 -42.242188 23.316406 -55.875 C 23.316406 -61.617188 29.964844 -63.871094 34.695312 -63.871094 C 43.144531 -63.871094 47.761719 -61.28125 48.664062 -53.28125 L 64.996094 -53.28125 C 64.433594 -70.742188 50.242188 -77.726562 34.46875 -77.726562 C 20.5 -77.726562 5.859375 -70.292969 5.859375 -54.523438 C 5.859375 -26.246094 50.128906 -35.820312 50.128906 -20.953125 C 50.128906 -14.082031 41.792969 -11.941406 36.496094 -11.941406 Z M 36.496094 -11.941406" transform="translate(839.354 492.122)"/></g></g></g><g fill="#D5FCFF"><g><g><path d="M 23.65625 0 L 23.65625 -76.601562 L 6.757812 -76.601562 L 6.757812 0 Z M 23.65625 0" transform="translate(945.92 492.122)"/></g></g></g><g fill="#D5FCFF"><g><g><path d="M 62.070312 -26.023438 C 58.914062 -19.261719 51.253906 -14.644531 43.371094 -14.644531 C 30.976562 -14.644531 21.066406 -25.234375 21.066406 -38.300781 C 21.066406 -51.253906 30.976562 -61.957031 43.371094 -61.957031 C 51.140625 -61.957031 58.800781 -57.675781 61.957031 -50.804688 L 80.769531 -50.804688 C 75.585938 -66.460938 60.828125 -77.726562 43.371094 -77.726562 C 21.628906 -77.726562 3.941406 -60.042969 3.941406 -38.300781 C 3.941406 -16.558594 21.628906 1.125 43.371094 1.125 C 60.828125 1.125 75.699219 -10.25 80.882812 -26.023438 Z M 62.070312 -26.023438" transform="translate(1011.932 492.122)"/></g></g></g><g fill="#D5FCFF"><g><g><path d="M 23.65625 -27.375 L 23.769531 -27.375 L 42.019531 0 L 63.421875 0 L 41.453125 -28.160156 C 51.140625 -30.527344 58.914062 -39.089844 58.914062 -52.042969 C 58.914062 -66.574219 47.875 -76.601562 35.484375 -76.601562 L 6.757812 -76.601562 L 6.757812 0 L 23.65625 0 Z M 32.667969 -63.308594 C 37.625 -63.308594 42.804688 -59.027344 42.804688 -52.042969 C 42.804688 -44.722656 37.625 -40.664062 32.667969 -40.664062 L 23.65625 -40.664062 L 23.65625 -63.308594 Z M 32.667969 -63.308594" transform="translate(601.05 689.64)"/></g></g></g><g fill="#D5FCFF"><g><g><path d="M 51.140625 -15.320312 L 23.65625 -15.320312 L 23.65625 -30.753906 L 50.015625 -30.753906 L 50.015625 -46.074219 L 23.65625 -46.074219 L 23.65625 -61.28125 L 51.140625 -61.28125 L 51.140625 -76.601562 L 6.757812 -76.601562 L 6.757812 0 L 51.140625 0 Z M 51.140625 -15.320312" transform="translate(698.717 689.64)"/></g></g></g><g fill="#D5FCFF"><g><g><path d="M 48.4375 -29.289062 L 29.0625 -29.289062 L 38.75 -56.550781 Z M 77.050781 0 L 45.960938 -76.601562 L 31.652344 -76.601562 L 0.5625 0 L 18.699219 0 L 24.21875 -15.433594 L 53.394531 -15.433594 L 58.914062 0 Z M 77.050781 0" transform="translate(792.215 689.64)"/></g></g></g><g fill="#D5FCFF"><g><g><path d="M 62.070312 -26.023438 C 58.914062 -19.261719 51.253906 -14.644531 43.371094 -14.644531 C 30.976562 -14.644531 21.066406 -25.234375 21.066406 -38.300781 C 21.066406 -51.253906 30.976562 -61.957031 43.371094 -61.957031 C 51.140625 -61.957031 58.800781 -57.675781 61.957031 -50.804688 L 80.769531 -50.804688 C 75.585938 -66.460938 60.828125 -77.726562 43.371094 -77.726562 C 21.628906 -77.726562 3.941406 -60.042969 3.941406 -38.300781 C 3.941406 -16.558594 21.628906 1.125 43.371094 1.125 C 60.828125 1.125 75.699219 -10.25 80.882812 -26.023438 Z M 62.070312 -26.023438" transform="translate(905.427 689.64)"/></g></g></g><g fill="#D5FCFF"><g><g><path d="M 39.3125 -61.28125 L 61.167969 -61.28125 L 61.167969 -76.601562 L 0.5625 -76.601562 L 0.5625 -61.28125 L 22.417969 -61.28125 L 22.417969 0 L 39.3125 0 Z M 39.3125 -61.28125" transform="translate(1024.721 689.64)"/></g></g></g></svg>