<svg xmlns="http://www.w3.org/2000/svg" width="1125" viewBox="0 0 1125 1125" height="1125" version="1.0"><defs><clipPath id="a"><path d="M 7 284.296875 L 486.878906 284.296875 L 486.878906 729.796875 L 7 729.796875 Z M 7 284.296875"/></clipPath><clipPath id="b"><path d="M 160.355469 371 L 333.605469 371 L 333.605469 526 L 160.355469 526 Z M 160.355469 371"/></clipPath></defs><g clip-path="url(#a)"><path fill="#F5F8FA" d="M 486.707031 542.707031 L 486.707031 631.128906 C 486.707031 633.371094 486.609375 635.613281 486.421875 637.851562 C 486.234375 640.089844 485.953125 642.316406 485.574219 644.527344 C 485.199219 646.742188 484.734375 648.9375 484.175781 651.109375 C 483.613281 653.285156 482.964844 655.433594 482.226562 657.550781 C 481.488281 659.671875 480.660156 661.757812 479.746094 663.808594 C 478.832031 665.859375 477.832031 667.867188 476.75 669.835938 C 475.667969 671.800781 474.503906 673.71875 473.261719 675.585938 C 472.019531 677.457031 470.699219 679.269531 469.304688 681.027344 C 467.910156 682.785156 466.441406 684.484375 464.90625 686.117188 C 463.367188 687.753906 461.765625 689.320312 460.09375 690.820312 C 458.425781 692.324219 456.699219 693.75 454.910156 695.105469 C 453.121094 696.460938 451.277344 697.738281 449.382812 698.9375 C 447.488281 700.140625 445.542969 701.257812 443.554688 702.296875 C 441.5625 703.332031 439.535156 704.285156 437.464844 705.152344 C 435.394531 706.019531 433.292969 706.796875 431.160156 707.488281 C 429.023438 708.175781 426.863281 708.777344 424.679688 709.285156 C 424.648438 709.980469 424.585938 710.667969 424.488281 711.355469 C 424.390625 712.042969 424.261719 712.726562 424.097656 713.398438 C 423.933594 714.074219 423.738281 714.738281 423.511719 715.394531 C 423.28125 716.050781 423.023438 716.691406 422.734375 717.324219 C 422.445312 717.953125 422.125 718.566406 421.773438 719.167969 C 421.425781 719.765625 421.046875 720.347656 420.640625 720.910156 C 420.234375 721.472656 419.804688 722.015625 419.34375 722.535156 C 418.886719 723.058594 418.40625 723.554688 417.898438 724.027344 C 417.390625 724.503906 416.863281 724.949219 416.3125 725.375 C 415.765625 725.796875 415.195312 726.191406 414.605469 726.558594 C 414.019531 726.925781 413.414062 727.265625 412.792969 727.574219 C 412.171875 727.882812 411.539062 728.160156 410.890625 728.410156 C 410.242188 728.65625 409.585938 728.871094 408.917969 729.054688 C 408.246094 729.238281 407.570312 729.390625 406.886719 729.507812 C 406.203125 729.625 405.519531 729.710938 404.828125 729.761719 C 404.132812 729.8125 403.441406 729.832031 402.75 729.816406 C 402.054688 729.800781 401.363281 729.75 400.675781 729.667969 C 399.988281 729.585938 399.304688 729.46875 398.628906 729.320312 C 397.953125 729.167969 397.28125 728.988281 396.625 728.773438 C 395.964844 728.558594 395.316406 728.316406 394.679688 728.039062 C 394.042969 727.761719 393.421875 727.453125 392.816406 727.117188 C 392.210938 726.78125 391.621094 726.414062 391.050781 726.019531 C 390.480469 725.625 389.929688 725.207031 389.402344 724.757812 C 388.871094 724.3125 388.363281 723.839844 387.878906 723.34375 C 387.394531 722.84375 386.9375 722.328125 386.503906 721.785156 C 386.070312 721.242188 385.660156 720.683594 385.28125 720.101562 C 384.902344 719.519531 384.550781 718.921875 384.230469 718.308594 C 383.90625 717.695312 383.617188 717.066406 383.355469 716.421875 C 383.09375 715.78125 382.867188 715.125 382.667969 714.460938 C 382.46875 713.792969 382.304688 713.121094 382.171875 712.441406 C 382.039062 711.757812 381.941406 711.074219 381.875 710.382812 C 381.808594 709.691406 381.777344 709 381.777344 708.304688 L 381.777344 553.457031 C 381.785156 552.753906 381.824219 552.054688 381.898438 551.355469 C 381.972656 550.65625 382.082031 549.960938 382.222656 549.273438 C 382.363281 548.585938 382.539062 547.90625 382.746094 547.234375 C 382.953125 546.5625 383.191406 545.902344 383.464844 545.253906 C 383.738281 544.605469 384.039062 543.972656 384.371094 543.355469 C 384.707031 542.734375 385.066406 542.132812 385.460938 541.550781 C 385.851562 540.964844 386.269531 540.402344 386.71875 539.859375 C 387.164062 539.316406 387.636719 538.796875 388.132812 538.300781 C 388.628906 537.804688 389.148438 537.332031 389.691406 536.886719 C 390.234375 536.441406 390.796875 536.023438 391.378906 535.628906 C 391.964844 535.238281 392.566406 534.875 393.183594 534.542969 C 393.800781 534.210938 394.433594 533.910156 395.082031 533.636719 C 395.730469 533.367188 396.390625 533.125 397.0625 532.917969 C 397.734375 532.710938 398.414062 532.539062 399.101562 532.398438 C 399.789062 532.253906 400.480469 532.148438 401.179688 532.074219 C 401.878906 532 402.578125 531.960938 403.28125 531.957031 C 403.988281 531.945312 404.695312 531.972656 405.398438 532.03125 C 406.105469 532.09375 406.804688 532.1875 407.5 532.320312 C 408.195312 532.449219 408.882812 532.617188 409.558594 532.816406 C 410.238281 533.015625 410.90625 533.25 411.5625 533.515625 C 412.214844 533.78125 412.855469 534.082031 413.480469 534.410156 C 414.105469 534.742188 414.714844 535.105469 415.304688 535.496094 C 415.890625 535.886719 416.460938 536.308594 417.007812 536.757812 C 417.554688 537.207031 418.078125 537.679688 418.578125 538.183594 C 419.078125 538.683594 419.550781 539.207031 419.996094 539.757812 C 420.445312 540.304688 420.863281 540.875 421.25 541.46875 C 421.640625 542.058594 422 542.667969 422.328125 543.292969 C 422.660156 543.921875 422.957031 544.5625 423.21875 545.21875 C 423.484375 545.875 423.714844 546.542969 423.914062 547.222656 C 424.109375 547.902344 424.273438 548.589844 424.402344 549.289062 C 424.53125 549.984375 424.625 550.683594 424.683594 551.390625 C 424.742188 552.097656 424.765625 552.804688 424.753906 553.511719 C 431.691406 555.179688 438.304688 557.707031 444.589844 561.089844 C 450.875 564.476562 456.628906 568.605469 461.847656 573.480469 L 461.847656 542.707031 C 461.757812 530.128906 460.609375 517.648438 458.398438 505.265625 C 456.1875 492.878906 452.945312 480.773438 448.675781 468.941406 C 440.863281 448.921875 430.613281 429.382812 417.390625 412.285156 C 414.042969 413.25 410.625 413.738281 407.140625 413.746094 C 398.796875 413.746094 391.027344 410.324219 384.6875 404.46875 L 384.199219 403.976562 C 375.292969 394.78125 365.539062 386.605469 354.933594 379.445312 C 344.324219 372.28125 333.097656 366.292969 321.242188 361.472656 C 315.328125 359.0625 309.3125 356.9375 303.195312 355.109375 C 297.078125 353.277344 290.882812 351.746094 284.617188 350.519531 C 278.351562 349.289062 272.039062 348.363281 265.683594 347.746094 C 259.328125 347.128906 252.957031 346.820312 246.570312 346.820312 C 240.1875 346.820312 233.816406 347.128906 227.460938 347.746094 C 221.101562 348.363281 214.792969 349.289062 208.527344 350.519531 C 202.257812 351.746094 196.066406 353.277344 189.949219 355.109375 C 183.828125 356.9375 177.8125 359.0625 171.902344 361.472656 C 160.144531 366.472656 148.972656 372.550781 138.382812 379.699219 C 127.792969 386.847656 117.980469 394.941406 108.945312 403.976562 L 107.976562 404.957031 C 106.519531 406.285156 104.953125 407.46875 103.277344 408.503906 C 101.601562 409.542969 99.847656 410.417969 98.011719 411.132812 C 96.175781 411.847656 94.289062 412.386719 92.351562 412.753906 C 90.417969 413.117188 88.464844 413.304688 86.492188 413.308594 C 83.011719 413.300781 79.597656 412.8125 76.253906 411.847656 C 69.585938 420.414062 63.628906 429.445312 58.382812 438.949219 C 53.136719 448.453125 48.664062 458.308594 44.96875 468.515625 C 40.601562 480.308594 37.320312 492.394531 35.125 504.777344 C 32.929688 517.160156 31.855469 529.640625 31.902344 542.21875 L 31.902344 573 C 34.605469 570.394531 37.480469 567.996094 40.527344 565.804688 C 43.574219 563.617188 46.761719 561.65625 50.089844 559.925781 C 53.421875 558.195312 56.855469 556.710938 60.398438 555.476562 C 63.941406 554.238281 67.554688 553.265625 71.238281 552.550781 C 71.261719 551.847656 71.320312 551.148438 71.410156 550.449219 C 71.503906 549.75 71.628906 549.0625 71.789062 548.375 C 71.949219 547.691406 72.140625 547.015625 72.367188 546.347656 C 72.59375 545.683594 72.851562 545.027344 73.140625 544.386719 C 73.433594 543.746094 73.753906 543.121094 74.105469 542.511719 C 74.457031 541.902344 74.835938 541.3125 75.246094 540.742188 C 75.65625 540.167969 76.09375 539.621094 76.554688 539.089844 C 77.019531 538.5625 77.507812 538.058594 78.023438 537.578125 C 78.535156 537.09375 79.070312 536.640625 79.628906 536.214844 C 80.1875 535.785156 80.761719 535.386719 81.359375 535.011719 C 81.957031 534.640625 82.570312 534.300781 83.203125 533.988281 C 83.832031 533.679688 84.476562 533.398438 85.132812 533.152344 C 85.792969 532.90625 86.460938 532.691406 87.140625 532.507812 C 87.820312 532.324219 88.503906 532.179688 89.199219 532.0625 C 89.894531 531.949219 90.589844 531.871094 91.292969 531.824219 C 91.992188 531.777344 92.695312 531.765625 93.398438 531.789062 C 94.101562 531.8125 94.800781 531.871094 95.496094 531.960938 C 96.195312 532.054688 96.882812 532.179688 97.570312 532.339844 C 98.253906 532.5 98.929688 532.695312 99.59375 532.921875 C 100.257812 533.144531 100.914062 533.40625 101.550781 533.695312 C 102.191406 533.984375 102.816406 534.308594 103.425781 534.660156 C 104.035156 535.011719 104.625 535.390625 105.195312 535.800781 C 105.765625 536.210938 106.316406 536.648438 106.84375 537.113281 C 107.375 537.578125 107.878906 538.066406 108.359375 538.578125 C 108.839844 539.09375 109.292969 539.628906 109.71875 540.1875 C 110.148438 540.746094 110.546875 541.324219 110.917969 541.921875 C 111.289062 542.519531 111.628906 543.132812 111.941406 543.765625 C 112.25 544.394531 112.53125 545.039062 112.777344 545.699219 C 113.023438 546.359375 113.238281 547.027344 113.421875 547.707031 C 113.601562 548.386719 113.75 549.074219 113.867188 549.769531 C 113.980469 550.460938 114.058594 551.160156 114.105469 551.863281 C 114.152344 552.5625 114.164062 553.265625 114.140625 553.96875 L 114.140625 708.304688 C 114.140625 708.996094 114.109375 709.683594 114.042969 710.371094 C 113.976562 711.054688 113.878906 711.738281 113.75 712.414062 C 113.617188 713.09375 113.453125 713.761719 113.257812 714.425781 C 113.0625 715.085938 112.835938 715.734375 112.578125 716.375 C 112.320312 717.015625 112.03125 717.640625 111.714844 718.253906 C 111.394531 718.867188 111.050781 719.460938 110.671875 720.039062 C 110.296875 720.617188 109.894531 721.175781 109.464844 721.714844 C 109.035156 722.253906 108.582031 722.773438 108.101562 723.269531 C 107.625 723.765625 107.121094 724.238281 106.597656 724.683594 C 106.074219 725.132812 105.527344 725.550781 104.964844 725.949219 C 104.398438 726.34375 103.816406 726.710938 103.214844 727.046875 C 102.613281 727.386719 102 727.695312 101.367188 727.976562 C 100.738281 728.253906 100.097656 728.503906 99.441406 728.71875 C 98.789062 728.9375 98.125 729.125 97.453125 729.277344 C 96.78125 729.429688 96.105469 729.550781 95.421875 729.640625 C 94.738281 729.726562 94.050781 729.78125 93.363281 729.804688 C 92.671875 729.824219 91.984375 729.816406 91.296875 729.769531 C 90.609375 729.726562 89.925781 729.648438 89.246094 729.539062 C 88.5625 729.429688 87.890625 729.285156 87.222656 729.109375 C 86.558594 728.933594 85.902344 728.726562 85.253906 728.488281 C 84.605469 728.25 83.972656 727.980469 83.351562 727.679688 C 82.730469 727.382812 82.128906 727.050781 81.539062 726.695312 C 80.949219 726.335938 80.378906 725.949219 79.828125 725.539062 C 79.273438 725.125 78.742188 724.6875 78.234375 724.222656 C 77.722656 723.757812 77.238281 723.269531 76.773438 722.757812 C 76.3125 722.246094 75.875 721.714844 75.464844 721.160156 C 75.050781 720.609375 74.667969 720.035156 74.3125 719.445312 C 73.953125 718.855469 73.628906 718.25 73.328125 717.628906 C 73.03125 717.003906 72.761719 716.371094 72.527344 715.722656 C 72.289062 715.074219 72.082031 714.417969 71.910156 713.75 C 71.738281 713.082031 71.59375 712.40625 71.484375 711.726562 C 71.378906 711.046875 71.300781 710.359375 71.257812 709.671875 C 67.414062 708.886719 63.648438 707.828125 59.960938 706.492188 C 56.269531 705.15625 52.699219 703.5625 49.242188 701.707031 C 45.785156 699.851562 42.480469 697.753906 39.328125 695.414062 C 36.175781 693.078125 33.210938 690.523438 30.433594 687.753906 C 28.578125 685.902344 26.816406 683.960938 25.152344 681.9375 C 23.488281 679.910156 21.925781 677.804688 20.46875 675.625 C 19.011719 673.445312 17.664062 671.199219 16.429688 668.886719 C 15.191406 666.574219 14.074219 664.207031 13.070312 661.78125 C 12.066406 659.359375 11.1875 656.890625 10.429688 654.378906 C 9.667969 651.871094 9.035156 649.328125 8.527344 646.753906 C 8.015625 644.179688 7.636719 641.589844 7.382812 638.976562 C 7.128906 636.367188 7.003906 633.75 7.011719 631.128906 L 7.011719 542.707031 C 7.078125 528.722656 8.335938 514.84375 10.789062 501.074219 C 13.238281 487.304688 16.847656 473.84375 21.609375 460.695312 C 25.847656 449.082031 30.957031 437.863281 36.9375 427.039062 C 42.917969 416.21875 49.695312 405.925781 57.273438 396.160156 C 56.113281 394.070312 55.242188 391.867188 54.664062 389.546875 C 54.085938 387.230469 53.820312 384.875 53.863281 382.484375 C 53.839844 380.398438 54.027344 378.328125 54.421875 376.277344 C 54.816406 374.222656 55.410156 372.234375 56.207031 370.300781 C 57.003906 368.371094 57.984375 366.539062 59.152344 364.808594 C 60.320312 363.074219 61.644531 361.476562 63.136719 360.011719 C 65.386719 357.769531 67.675781 355.570312 70.007812 353.414062 C 72.339844 351.257812 74.710938 349.140625 77.117188 347.070312 C 79.527344 345 81.972656 342.976562 84.457031 340.992188 C 86.9375 339.011719 89.457031 337.078125 92.011719 335.191406 C 94.566406 333.300781 97.152344 331.460938 99.773438 329.667969 C 102.394531 327.871094 105.046875 326.128906 107.734375 324.433594 C 110.417969 322.734375 113.132812 321.089844 115.878906 319.492188 C 118.625 317.894531 121.398438 316.351562 124.203125 314.855469 C 127.003906 313.359375 129.832031 311.917969 132.6875 310.527344 C 135.542969 309.136719 138.421875 307.796875 141.324219 306.511719 C 144.230469 305.226562 147.15625 303.996094 150.105469 302.816406 C 153.054688 301.640625 156.023438 300.515625 159.015625 299.449219 C 162.003906 298.378906 165.011719 297.363281 168.039062 296.40625 C 171.066406 295.449219 174.113281 294.542969 177.171875 293.699219 C 180.234375 292.851562 183.308594 292.0625 186.398438 291.328125 C 189.484375 290.59375 192.589844 289.914062 195.703125 289.296875 C 198.816406 288.675781 201.941406 288.113281 205.074219 287.605469 C 208.210938 287.101562 211.355469 286.652344 214.503906 286.261719 C 217.65625 285.875 220.8125 285.539062 223.976562 285.265625 C 227.140625 284.992188 230.308594 284.777344 233.480469 284.617188 C 236.648438 284.460938 239.824219 284.359375 242.996094 284.316406 C 246.171875 284.277344 249.347656 284.292969 252.523438 284.367188 C 255.695312 284.441406 258.867188 284.574219 262.039062 284.765625 C 265.207031 284.957031 268.371094 285.207031 271.53125 285.515625 C 274.691406 285.820312 277.847656 286.1875 280.992188 286.609375 C 284.140625 287.035156 287.277344 287.515625 290.40625 288.050781 C 293.539062 288.589844 296.65625 289.1875 299.761719 289.839844 C 302.871094 290.492188 305.964844 291.199219 309.046875 291.96875 C 312.128906 292.734375 315.195312 293.554688 318.246094 294.433594 C 321.296875 295.3125 324.332031 296.246094 327.347656 297.238281 C 330.367188 298.226562 333.363281 299.273438 336.34375 300.375 C 339.324219 301.472656 342.28125 302.628906 345.21875 303.835938 C 360.933594 310.316406 375.855469 318.285156 389.984375 327.742188 C 404.113281 337.199219 417.171875 347.953125 429.164062 360.011719 C 430.652344 361.476562 431.980469 363.074219 433.144531 364.808594 C 434.3125 366.539062 435.292969 368.371094 436.089844 370.300781 C 436.886719 372.234375 437.484375 374.222656 437.878906 376.277344 C 438.273438 378.328125 438.457031 380.398438 438.433594 382.484375 C 438.226562 387.277344 437.085938 391.835938 435.015625 396.160156 C 442.589844 405.925781 449.363281 416.21875 455.339844 427.039062 C 461.3125 437.863281 466.417969 449.082031 470.648438 460.695312 C 475.53125 473.820312 479.199219 487.277344 481.652344 501.066406 C 484.105469 514.855469 485.304688 528.753906 485.246094 542.761719 Z M 486.707031 542.707031"/></g><path fill="#F5F8FA" d="M 156.207031 618.089844 L 172.277344 618.089844 L 172.277344 701.9375 L 156.207031 701.9375 Z M 156.207031 618.089844"/><path fill="#F5F8FA" d="M 189.265625 564.835938 L 205.332031 564.835938 L 205.332031 701.925781 L 189.265625 701.925781 Z M 189.265625 564.835938"/><path fill="#F5F8FA" d="M 222.320312 585.230469 L 238.390625 585.230469 L 238.390625 701.9375 L 222.320312 701.9375 Z M 222.320312 585.230469"/><path fill="#F5F8FA" d="M 255.367188 533.113281 L 271.4375 533.113281 L 271.4375 701.9375 L 255.367188 701.9375 Z M 255.367188 533.113281"/><path fill="#F5F8FA" d="M 288.425781 564.835938 L 304.496094 564.835938 L 304.496094 701.925781 L 288.425781 701.925781 Z M 288.425781 564.835938"/><path fill="#F5F8FA" d="M 321.472656 598.832031 L 337.542969 598.832031 L 337.542969 701.9375 L 321.472656 701.9375 Z M 321.472656 598.832031"/><g clip-path="url(#b)"><path fill="#F5F8FA" d="M 302.683594 421.8125 C 300.894531 421.191406 299.035156 420.609375 297.117188 420.054688 C 297.433594 418.769531 297.726562 417.5 297.980469 416.253906 C 302.191406 395.78125 299.441406 379.289062 290.035156 373.859375 C 281.011719 368.652344 266.261719 374.082031 251.363281 387.0625 C 249.929688 388.308594 248.492188 389.628906 247.0625 391.015625 C 246.101562 390.097656 245.148438 389.214844 244.199219 388.367188 C 228.582031 374.488281 212.933594 368.640625 203.535156 374.085938 C 194.523438 379.308594 191.855469 394.8125 195.648438 414.214844 C 196.015625 416.089844 196.445312 418.003906 196.925781 419.949219 C 194.714844 420.578125 192.574219 421.25 190.53125 421.960938 C 172.226562 428.351562 160.535156 438.363281 160.535156 448.75 C 160.535156 459.472656 173.085938 470.234375 192.148438 476.757812 C 193.652344 477.273438 195.214844 477.761719 196.824219 478.21875 C 196.300781 480.324219 195.847656 482.382812 195.464844 484.398438 C 191.851562 503.464844 194.675781 518.601562 203.660156 523.789062 C 212.941406 529.148438 228.523438 523.636719 243.691406 510.367188 C 244.894531 509.320312 246.09375 508.203125 247.296875 507.039062 C 248.863281 508.542969 250.425781 509.96875 251.96875 511.308594 C 266.667969 523.964844 281.179688 529.074219 290.15625 523.875 C 299.425781 518.5 302.445312 502.234375 298.527344 482.453125 C 298.230469 480.9375 297.882812 479.394531 297.496094 477.828125 C 298.589844 477.503906 299.664062 477.164062 300.710938 476.820312 C 320.53125 470.242188 333.425781 459.621094 333.425781 448.75 C 333.425781 438.324219 321.355469 428.246094 302.683594 421.8125 Z M 298.386719 469.804688 C 297.441406 470.113281 296.46875 470.417969 295.484375 470.707031 C 293.296875 463.777344 290.34375 456.402344 286.722656 448.785156 C 290.175781 441.347656 293.011719 434.066406 295.140625 427.179688 C 296.910156 427.691406 298.625 428.230469 300.277344 428.800781 C 316.277344 434.316406 326.035156 442.46875 326.035156 448.75 C 326.035156 455.4375 315.5 464.125 298.386719 469.804688 Z M 291.28125 483.886719 C 293.019531 492.632812 293.261719 500.542969 292.113281 506.730469 C 291.085938 512.289062 289.011719 515.992188 286.453125 517.472656 C 281.003906 520.628906 269.355469 516.527344 256.792969 505.703125 C 255.347656 504.457031 253.894531 503.132812 252.445312 501.734375 C 257.3125 496.398438 262.183594 490.199219 266.9375 483.3125 C 275.289062 482.574219 283.183594 481.355469 290.351562 479.699219 C 290.703125 481.128906 291.011719 482.519531 291.28125 483.886719 Z M 219.480469 516.925781 C 214.15625 518.8125 209.917969 518.867188 207.355469 517.386719 C 201.898438 514.234375 199.632812 502.078125 202.726562 485.777344 C 203.078125 483.914062 203.5 481.992188 203.988281 480.03125 C 211.070312 481.601562 218.910156 482.730469 227.285156 483.40625 C 232.070312 490.144531 237.082031 496.339844 242.125 501.761719 C 241.027344 502.828125 239.925781 503.84375 238.832031 504.796875 C 232.125 510.671875 225.402344 514.835938 219.480469 516.925781 Z M 194.539062 469.761719 C 186.109375 466.875 179.148438 463.128906 174.375 459.03125 C 170.085938 455.363281 167.921875 451.710938 167.921875 448.75 C 167.921875 442.449219 177.308594 434.40625 192.960938 428.945312 C 194.863281 428.28125 196.851562 427.65625 198.914062 427.070312 C 201.078125 434.113281 203.914062 441.480469 207.339844 448.925781 C 203.871094 456.484375 200.992188 463.96875 198.808594 471.101562 C 197.335938 470.675781 195.910156 470.230469 194.539062 469.761719 Z M 202.898438 412.792969 C 199.652344 396.171875 201.808594 383.632812 207.238281 380.484375 C 213.023438 377.132812 225.8125 381.914062 239.289062 393.894531 C 240.15625 394.660156 241.019531 395.460938 241.890625 396.292969 C 236.867188 401.691406 231.902344 407.839844 227.160156 414.539062 C 219.027344 415.292969 211.246094 416.503906 204.089844 418.128906 C 203.640625 416.316406 203.242188 414.535156 202.902344 412.792969 Z M 277.472656 431.230469 C 275.765625 428.273438 274.007812 425.382812 272.21875 422.574219 C 277.734375 423.273438 283.015625 424.199219 287.980469 425.332031 C 286.496094 430.113281 284.636719 435.113281 282.449219 440.238281 C 280.882812 437.253906 279.222656 434.25 277.472656 431.230469 Z M 247.0625 401.574219 C 250.472656 405.269531 253.882812 409.394531 257.238281 413.871094 C 253.855469 413.710938 250.429688 413.628906 246.980469 413.628906 C 243.5625 413.628906 240.167969 413.710938 236.804688 413.867188 C 240.160156 409.433594 243.605469 405.3125 247.0625 401.574219 Z M 216.457031 431.28125 C 214.746094 434.246094 213.117188 437.234375 211.574219 440.230469 C 209.425781 435.125 207.585938 430.101562 206.082031 425.253906 C 211.015625 424.148438 216.273438 423.246094 221.757812 422.5625 C 219.941406 425.394531 218.167969 428.304688 216.457031 431.28125 Z M 221.914062 475.460938 C 216.25 474.832031 210.910156 473.972656 205.980469 472.898438 C 207.507812 467.964844 209.386719 462.839844 211.585938 457.621094 C 213.132812 460.613281 214.765625 463.601562 216.484375 466.578125 C 218.238281 469.605469 220.050781 472.566406 221.914062 475.460938 Z M 247.265625 496.441406 C 243.765625 492.660156 240.273438 488.476562 236.863281 483.980469 C 240.171875 484.109375 243.550781 484.175781 246.980469 484.175781 C 250.503906 484.175781 253.992188 484.09375 257.414062 483.945312 C 254.050781 488.523438 250.648438 492.714844 247.265625 496.441406 Z M 282.515625 457.355469 C 284.828125 462.628906 286.777344 467.726562 288.324219 472.582031 C 283.3125 473.722656 277.898438 474.644531 272.199219 475.332031 C 273.996094 472.488281 275.765625 469.546875 277.507812 466.523438 C 279.269531 463.46875 280.9375 460.40625 282.515625 457.355469 Z M 271.105469 462.832031 C 268.402344 467.523438 265.625 472 262.8125 476.226562 C 257.683594 476.589844 252.382812 476.78125 246.980469 476.78125 C 241.597656 476.78125 236.363281 476.617188 231.324219 476.285156 C 228.394531 472.007812 225.5625 467.519531 222.875 462.871094 L 222.878906 462.871094 C 220.199219 458.242188 217.734375 453.570312 215.5 448.925781 C 217.734375 444.273438 220.191406 439.597656 222.855469 434.972656 C 225.523438 430.339844 228.335938 425.871094 231.238281 421.613281 C 236.378906 421.226562 241.652344 421.023438 246.980469 421.023438 C 252.335938 421.023438 257.609375 421.226562 262.75 421.617188 C 265.613281 425.84375 268.402344 430.296875 271.082031 434.933594 C 273.792969 439.621094 276.285156 444.265625 278.53125 448.824219 C 276.289062 453.457031 273.804688 458.148438 271.105469 462.832031 Z M 286.339844 380.261719 C 292.132812 383.605469 294.382812 397.085938 290.742188 414.761719 C 290.511719 415.886719 290.25 417.039062 289.964844 418.203125 C 282.792969 416.542969 275.007812 415.3125 266.855469 414.546875 C 262.101562 407.773438 257.179688 401.617188 252.234375 396.285156 C 253.566406 395.007812 254.894531 393.785156 256.210938 392.636719 C 268.976562 381.515625 280.910156 377.125 286.339844 380.261719 Z M 246.980469 433.292969 C 255.503906 433.292969 262.417969 440.207031 262.417969 448.746094 C 262.417969 457.28125 255.503906 464.203125 246.980469 464.203125 C 238.457031 464.203125 231.542969 457.28125 231.542969 448.746094 C 231.542969 440.207031 238.457031 433.292969 246.980469 433.292969 Z M 246.980469 433.292969"/></g><g fill="#F5F8FA"><g><g><path d="M 120.746094 0 L 103.191406 -90.425781 L 79.523438 -90.425781 L 60.773438 -26.996094 L 41.890625 -90.425781 L 18.21875 -90.425781 L 0.664062 0 L 22.605469 0 L 33.246094 -62.367188 L 50.933594 0 L 70.480469 0 L 88.167969 -62.367188 L 98.804688 0 Z M 120.746094 0" transform="translate(525.186 474.279)"/></g></g></g><g fill="#F5F8FA"><g><g><path d="M 60.773438 -90.425781 L 60.773438 -38.164062 C 60.773438 -25.664062 57.050781 -18.617188 43.351562 -18.617188 C 29.789062 -18.617188 25.929688 -25.664062 25.929688 -38.164062 L 25.929688 -90.425781 L 5.984375 -90.425781 L 5.984375 -35.238281 C 5.984375 -11.171875 19.8125 1.328125 43.351562 1.328125 C 66.890625 1.328125 80.71875 -11.171875 80.71875 -35.238281 L 80.71875 -90.425781 Z M 60.773438 -90.425781" transform="translate(686.49 474.279)"/></g></g></g><g fill="#F5F8FA"><g><g><path d="M 43.085938 -14.097656 C 33.246094 -14.097656 24.734375 -19.015625 24.203125 -29.789062 L 3.988281 -29.789062 C 4.121094 -7.714844 22.339844 2.128906 42.289062 2.128906 C 60.773438 2.128906 79.789062 -5.71875 79.789062 -26.996094 C 79.789062 -61.4375 27.527344 -49.867188 27.527344 -65.957031 C 27.527344 -72.742188 35.371094 -75.398438 40.957031 -75.398438 C 50.933594 -75.398438 56.382812 -72.339844 57.449219 -62.898438 L 76.730469 -62.898438 C 76.066406 -83.511719 59.308594 -91.757812 40.691406 -91.757812 C 24.203125 -91.757812 6.914062 -82.980469 6.914062 -64.363281 C 6.914062 -30.984375 59.175781 -42.289062 59.175781 -24.734375 C 59.175781 -16.621094 49.335938 -14.097656 43.085938 -14.097656 Z M 43.085938 -14.097656" transform="translate(813.088 474.279)"/></g></g></g><g fill="#F5F8FA"><g><g><path d="M 27.925781 0 L 27.925781 -90.425781 L 7.980469 -90.425781 L 7.980469 0 Z M 27.925781 0" transform="translate(936.76 474.279)"/></g></g></g><g fill="#F5F8FA"><g><g><path d="M 73.273438 -30.71875 C 69.550781 -22.738281 60.507812 -17.289062 51.199219 -17.289062 C 36.570312 -17.289062 24.867188 -29.789062 24.867188 -45.214844 C 24.867188 -60.507812 36.570312 -73.140625 51.199219 -73.140625 C 60.375 -73.140625 69.417969 -68.085938 73.140625 -59.972656 L 95.347656 -59.972656 C 89.230469 -78.457031 71.808594 -91.757812 51.199219 -91.757812 C 25.53125 -91.757812 4.65625 -70.878906 4.65625 -45.214844 C 4.65625 -19.546875 25.53125 1.328125 51.199219 1.328125 C 71.808594 1.328125 89.363281 -12.101562 95.480469 -30.71875 Z M 73.273438 -30.71875" transform="translate(1012.561 474.279)"/></g></g></g><g fill="#F5F8FA"><g><g><path d="M 27.925781 -32.3125 L 28.058594 -32.3125 L 49.601562 0 L 74.867188 0 L 48.9375 -33.246094 C 60.375 -36.039062 69.550781 -46.144531 69.550781 -61.4375 C 69.550781 -78.589844 56.515625 -90.425781 41.890625 -90.425781 L 7.980469 -90.425781 L 7.980469 0 L 27.925781 0 Z M 38.566406 -74.734375 C 44.414062 -74.734375 50.53125 -69.683594 50.53125 -61.4375 C 50.53125 -52.792969 44.414062 -48.007812 38.566406 -48.007812 L 27.925781 -48.007812 L 27.925781 -74.734375 Z M 38.566406 -74.734375" transform="translate(536.03 660.112)"/></g></g></g><g fill="#F5F8FA"><g><g><path d="M 60.375 -18.085938 L 27.925781 -18.085938 L 27.925781 -36.304688 L 59.042969 -36.304688 L 59.042969 -54.390625 L 27.925781 -54.390625 L 27.925781 -72.339844 L 60.375 -72.339844 L 60.375 -90.425781 L 7.980469 -90.425781 L 7.980469 0 L 60.375 0 Z M 60.375 -18.085938" transform="translate(649.196 660.112)"/></g></g></g><g fill="#F5F8FA"><g><g><path d="M 57.183594 -34.574219 L 34.308594 -34.574219 L 45.746094 -66.757812 Z M 90.960938 0 L 54.257812 -90.425781 L 37.367188 -90.425781 L 0.664062 0 L 22.074219 0 L 28.589844 -18.21875 L 63.03125 -18.21875 L 69.550781 0 Z M 90.960938 0" transform="translate(757.443 660.112)"/></g></g></g><g fill="#F5F8FA"><g><g><path d="M 73.273438 -30.71875 C 69.550781 -22.738281 60.507812 -17.289062 51.199219 -17.289062 C 36.570312 -17.289062 24.867188 -29.789062 24.867188 -45.214844 C 24.867188 -60.507812 36.570312 -73.140625 51.199219 -73.140625 C 60.375 -73.140625 69.417969 -68.085938 73.140625 -59.972656 L 95.347656 -59.972656 C 89.230469 -78.457031 71.808594 -91.757812 51.199219 -91.757812 C 25.53125 -91.757812 4.65625 -70.878906 4.65625 -45.214844 C 4.65625 -19.546875 25.53125 1.328125 51.199219 1.328125 C 71.808594 1.328125 89.363281 -12.101562 95.480469 -30.71875 Z M 73.273438 -30.71875" transform="translate(888.96 660.112)"/></g></g></g><g fill="#F5F8FA"><g><g><path d="M 46.410156 -72.339844 L 72.207031 -72.339844 L 72.207031 -90.425781 L 0.664062 -90.425781 L 0.664062 -72.339844 L 26.464844 -72.339844 L 26.464844 0 L 46.410156 0 Z M 46.410156 -72.339844" transform="translate(1027.66 660.112)"/></g></g></g></svg>